<svg width="36" height="36" viewBox="0 0 36 36" fill="none" xmlns="http://www.w3.org/2000/svg">
<rect width="36" height="36" rx="18" fill="#0090D8"/>
<path d="M11.3117 16.7615C14.2301 11.5872 15.6892 9 18 9C20.3107 9 21.7699 11.5872 24.6883 16.7615L25.0519 17.4063C27.4771 21.7061 28.6897 23.856 27.5937 25.428C26.4978 27 23.7864 27 18.3637 27H17.6363C12.2136 27 9.50217 27 8.40626 25.428C7.31034 23.856 8.52291 21.7061 10.948 17.4063L11.3117 16.7615Z" stroke="white" stroke-width="2"/>
<path d="M18 14V19" stroke="white" stroke-width="2" stroke-linecap="round"/>
<path d="M18 24.4998C18.8284 24.4998 19.5 23.8283 19.5 22.9998C19.5 22.1714 18.8284 21.4998 18 21.4998C17.1716 21.4998 16.5 22.1714 16.5 22.9998C16.5 23.8283 17.1716 24.4998 18 24.4998Z" fill="white"/>
</svg>
