<svg width="248" height="56" viewBox="0 0 248 56" fill="none" xmlns="http://www.w3.org/2000/svg">
<g clip-path="url(#clip0_2762_5805)">
<path d="M122.36 10.0874L116.991 15.2795C113.561 11.7934 109.609 10.0132 105.061 10.0132C101.109 10.0132 97.828 11.2742 95.1437 13.8702C92.4594 16.4662 91.1172 19.5073 91.1172 23.2159C91.1172 26.9987 92.534 30.1881 95.2928 32.8583C98.0517 35.4543 101.482 36.7894 105.508 36.7894C108.118 36.7894 110.355 36.2702 112.144 35.1576C113.934 34.045 115.425 32.3391 116.544 30.0397H104.912V22.9934H125.118L125.193 24.6252C125.193 28.0371 124.298 31.3007 122.434 34.4159C120.57 37.5311 118.259 39.8305 115.351 41.4622C112.443 43.094 109.087 43.9099 105.21 43.9099C101.034 43.9099 97.3061 43.0199 94.0998 41.2397C90.819 39.4596 88.2838 36.9377 86.3452 33.6742C84.4811 30.4106 83.5117 26.8503 83.5117 23.0675C83.5117 17.8755 85.3013 13.351 88.8058 9.49404C92.9813 4.89536 98.35 2.6702 105.061 2.6702C108.565 2.6702 111.846 3.33775 114.829 4.59867C117.438 5.63708 119.899 7.49139 122.36 10.0874Z" fill="#090C19"/>
<path d="M130.636 2.74438H138.093V42.9457H130.636V2.74438Z" fill="#090C19"/>
<path d="M158.747 13.2027C161.58 13.2027 164.19 13.8702 166.651 15.2795C169.111 16.6146 171.05 18.4689 172.392 20.8424C173.809 23.2159 174.48 25.7378 174.48 28.408C174.48 31.1523 173.809 33.6742 172.392 36.1219C170.975 38.5696 169.111 40.3497 166.725 41.6848C164.339 43.0199 161.655 43.6874 158.821 43.6874C154.571 43.6874 150.918 42.204 147.935 39.2371C144.953 36.2702 143.387 32.71 143.387 28.4821C143.387 23.9576 145.102 20.1749 148.457 17.1338C151.44 14.4636 154.87 13.2027 158.747 13.2027ZM158.896 20.0265C156.585 20.0265 154.646 20.8424 153.155 22.4C151.589 23.9576 150.843 25.9603 150.843 28.408C150.843 30.9298 151.589 33.0066 153.155 34.5643C154.646 36.1219 156.585 36.9378 158.896 36.9378C161.208 36.9378 163.146 36.1219 164.712 34.5643C166.278 33.0066 167.024 30.9298 167.024 28.4821C167.024 25.9603 166.278 23.9576 164.712 22.4C163.146 20.7682 161.208 20.0265 158.896 20.0265Z" fill="#090C19"/>
<path d="M178.805 13.9444H185.217V17.5788C185.888 16.1696 186.858 15.057 187.976 14.3152C189.095 13.5735 190.362 13.2027 191.704 13.2027C192.674 13.2027 193.643 13.4252 194.761 13.9444L192.45 20.1749C191.555 19.7298 190.884 19.5073 190.288 19.5073C189.169 19.5073 188.2 20.1749 187.38 21.5841C186.559 22.9934 186.187 25.6636 186.187 29.7431V31.1523V42.8715H178.805V13.9444Z" fill="#090C19"/>
<path d="M201.323 2.00266C202.665 2.00266 203.784 2.44769 204.678 3.41193C205.648 4.30199 206.095 5.48875 206.095 6.74968C206.095 8.08477 205.648 9.12319 204.678 10.0874C203.784 10.9775 202.665 11.4967 201.398 11.4967C200.055 11.4967 198.937 11.0517 198.042 10.0874C197.073 9.12319 196.625 8.0106 196.625 6.6755C196.625 5.41458 197.073 4.30199 198.042 3.41193C198.862 2.44769 199.981 2.00266 201.323 2.00266ZM197.595 13.9444H205.051V42.9457H197.595V13.9444Z" fill="#3366CC"/>
<path d="M224.81 3.70862H232.565L248 42.9457H240.096L236.964 34.8609H220.635L217.354 42.9457H209.45L224.81 3.70862ZM228.762 14.0927L223.394 27.5921H234.131L228.762 14.0927Z" fill="#3366CC"/>
<path d="M23.7114 36.9378L26.9922 37.0861C33.5538 37.3086 39.3698 37.3086 45.1858 35.2318C49.6596 33.6 51.7474 30.7815 52.5676 27.9629C44.7384 32.2649 34.7468 33.7484 25.65 31.8199C16.1058 29.7431 5.5923 22.4742 5.07035 11.4225C5.07035 10.9033 5.07035 10.3099 5.07035 9.79074C1.93867 13.9444 0 19.1364 0 24.6994C0 37.457 9.84245 47.9894 22.2946 49.2503C23.0403 46.2835 23.4131 43.1682 23.5622 40.1272L23.7114 36.9378Z" fill="#3366CC"/>
<path d="M46.3042 0H24.8298C23.7113 0 22.6674 0.0741722 21.6235 0.222517C18.2682 0.66755 15.1365 2.37351 13.2724 5.19205C12.1539 6.89801 11.4828 8.90066 11.632 11.1258C12.0048 18.7656 19.834 23.8834 26.9921 25.3669C36.4618 27.3695 45.9314 24.6993 55.1774 19.7298L58.9056 17.5046L59.3529 20.9907C60.6205 30.4106 56.0721 38.1245 47.3481 41.2397C41.5321 43.3166 35.7161 43.6874 29.8256 43.5391C29.751 44.2808 29.6764 45.0225 29.5273 45.7642C29.3782 46.951 29.1545 48.1377 28.9308 49.3987C28.4834 51.6238 27.8123 53.849 27.0667 56L34.1503 52.2914C37.8785 50.3629 41.9795 49.3245 46.2297 49.4728C59.8749 49.4728 71.0595 38.347 71.0595 24.7735C71.1341 11.1258 59.9495 0 46.3042 0Z" fill="#3366CC"/>
</g>
<defs>
<clipPath id="clip0_2762_5805">
<rect width="248" height="56" fill="white"/>
</clipPath>
</defs>
</svg>
