<svg width="163" height="43" viewBox="0 0 163 43" fill="none" xmlns="http://www.w3.org/2000/svg">
<g clip-path="url(#clip0_105_868)">
<path d="M32.5342 11.5748V8.59999H33.4637V11.5207C33.4637 12.4943 33.9558 12.9811 34.776 12.9811C35.5962 12.9811 36.0884 12.4943 36.0884 11.5207V8.5459H37.0179V11.4667C37.0179 12.9811 36.143 13.7924 34.776 13.7924C33.4091 13.8465 32.5342 13.0893 32.5342 11.5748Z" fill="white"/>
<path d="M38.2759 8.6001H39.0961L41.8847 12.1699V8.6001H42.8143V13.7926H42.0488L39.1508 10.1146V13.7926H38.2759V8.6001Z" fill="white"/>
<path d="M45.1107 8.6001H44.1812V13.7385H45.1107V8.6001Z" fill="white"/>
<path d="M46.04 8.6001H47.079L48.61 12.5485L50.1957 8.6001H51.1799L48.9927 13.7926H48.2272L46.04 8.6001Z" fill="white"/>
<path d="M52.0552 8.6001H55.9374V9.41142H52.9847V10.7636H55.6094V11.5749H52.9847V12.9812H55.9374V13.7926H52.0552V8.6001Z" fill="white"/>
<path d="M59.3273 11.1422C59.9835 11.1422 60.4209 10.8177 60.4209 10.2768C60.4209 9.73595 60.0381 9.41142 59.3273 9.41142H57.9603V11.1422H59.3273ZM57.0308 8.6001H59.3273C59.9835 8.6001 60.4756 8.81645 60.8037 9.14098C61.0771 9.41142 61.2411 9.79003 61.2411 10.2768C61.2411 11.1422 60.749 11.629 59.9835 11.8454L61.4051 13.7926H60.3115L59.0539 12.0076H57.9603V13.7926H57.0308V8.6001Z" fill="white"/>
<path d="M62.0615 13.0352L62.6083 12.3861C63.1004 12.8189 63.5926 13.0352 64.2487 13.0352C64.7955 13.0352 65.1783 12.7648 65.1783 12.3861C65.1783 12.0075 64.9595 11.8453 64.03 11.5748C62.9364 11.3044 62.2802 10.9799 62.2802 10.0604C62.2802 9.19496 63.0458 8.5459 64.0847 8.5459C64.8502 8.5459 65.4517 8.76225 65.9985 9.19495L65.5063 9.8981C65.0142 9.57357 64.5768 9.35722 64.0847 9.35722C63.5379 9.35722 63.2098 9.62766 63.2098 9.95219C63.2098 10.3308 63.4285 10.5472 64.4674 10.7635C65.561 11.0339 66.1625 11.4126 66.1625 12.278C66.1625 13.2516 65.397 13.7924 64.3034 13.7924C63.4285 13.8465 62.7177 13.5761 62.0615 13.0352Z" fill="white"/>
<path d="M68.1854 8.6001H67.2559V13.7385H68.1854V8.6001Z" fill="white"/>
<path d="M71.4665 12.9271C72.5601 12.9271 73.271 12.224 73.271 11.1963C73.271 10.1687 72.5601 9.46551 71.4665 9.46551H70.4276V12.9812H71.4665V12.9271ZM69.5527 8.6001H71.5212C73.1616 8.6001 74.3099 9.73595 74.3099 11.1422C74.3099 12.6026 73.1616 13.7385 71.5212 13.7385H69.5527V8.6001Z" fill="white"/>
<path d="M78.1372 11.7372L77.2623 9.68186L76.3874 11.7372H78.1372ZM76.8249 8.6001H77.6997L79.9963 13.7926H79.012L78.4653 12.5485H76.0047L75.4579 13.7926H74.5283L76.8249 8.6001Z" fill="white"/>
<path d="M82.7849 12.9271C83.8785 12.9271 84.5893 12.224 84.5893 11.1963C84.5893 10.1687 83.8785 9.46551 82.7849 9.46551H81.746V12.9812H82.7849V12.9271ZM80.8711 8.6001H82.8396C84.48 8.6001 85.6282 9.73595 85.6282 11.1422C85.6282 12.6026 84.48 13.7385 82.8396 13.7385H80.8711V8.6001Z" fill="white"/>
<path d="M31.769 20.824C31.769 18.0655 33.9016 15.8479 36.8543 15.8479C38.604 15.8479 39.6429 16.3347 40.6818 17.146L39.3148 18.7687C38.5493 18.1737 37.8932 17.7951 36.7996 17.7951C35.2685 17.7951 34.0109 19.1473 34.0109 20.7699V20.824C34.0109 22.5548 35.2139 23.8529 36.9636 23.8529C37.7291 23.8529 38.44 23.6366 38.9868 23.258V21.9058H36.8543V20.0668H41.0646V24.2315C40.0804 25.0429 38.7134 25.746 36.9089 25.746C33.8469 25.746 31.769 23.6907 31.769 20.824Z" fill="white"/>
<path d="M47.3523 23.0415V22.6629C46.9696 22.5006 46.5321 22.3925 45.9853 22.3925C45.1105 22.3925 44.509 22.7711 44.509 23.4201V23.4742C44.509 24.0151 45.0011 24.3396 45.6573 24.3396C46.6415 24.2855 47.3523 23.7447 47.3523 23.0415ZM42.4858 23.4742C42.4858 21.8516 43.7435 21.0943 45.4932 21.0943C46.2587 21.0943 46.8055 21.2025 47.2976 21.4189V21.3107C47.2976 20.4453 46.7509 19.9585 45.7119 19.9585C44.8917 19.9585 44.3449 20.1208 43.6888 20.3371L43.142 18.7686C43.9622 18.3899 44.7824 18.1736 46.04 18.1736C47.1883 18.1736 48.0085 18.4981 48.5553 18.9849C49.1021 19.5258 49.3755 20.3371 49.3755 21.3107V25.5836H47.3523V24.7723C46.8602 25.3132 46.1494 25.6918 45.1105 25.6918C43.6341 25.7459 42.4858 24.9346 42.4858 23.4742Z" fill="white"/>
<path d="M56.8122 21.9596C56.8122 20.7156 55.992 19.9043 55.0078 19.9043C54.0235 19.9043 53.2033 20.7156 53.2033 21.9056V21.9596C53.2033 23.2037 54.0235 23.9609 55.0078 23.9609C55.992 23.9609 56.8122 23.2037 56.8122 21.9596ZM53.258 24.6641V25.6376H51.1802V15.6313H53.258V19.3634C53.7501 18.6603 54.461 18.1735 55.5545 18.1735C57.3043 18.1735 58.9447 19.5257 58.9447 21.9596V22.0137C58.9447 24.4477 57.3043 25.7999 55.5545 25.7999C54.4063 25.7458 53.7501 25.259 53.258 24.6641Z" fill="white"/>
<path d="M60.4756 18.2819H62.5534V19.7422C62.9909 18.7146 63.7017 18.0655 64.9046 18.1196V20.2831H64.7953C63.3736 20.2831 62.5534 21.0944 62.5534 22.8793V25.5837H60.4756V18.2819Z" fill="white"/>
<path d="M66.3809 18.2817H68.4587V25.6376H66.3809V18.2817ZM66.3262 15.6313H68.5134V17.4703H66.3262V15.6313Z" fill="white"/>
<path d="M75.2937 21.3647C75.1843 20.4452 74.6375 19.7961 73.708 19.7961C72.8331 19.7961 72.2863 20.3911 72.1223 21.3647H75.2937ZM70.0991 21.9596C70.0991 19.8502 71.6301 18.1194 73.7627 18.1194C76.2232 18.1194 77.3715 20.0125 77.3715 22.1219C77.3715 22.2842 77.3715 22.5005 77.3168 22.6628H72.1769C72.3957 23.5823 73.0518 24.1232 73.9814 24.1232C74.6922 24.1232 75.1843 23.9068 75.7858 23.3659L76.9888 24.3936C76.2779 25.259 75.2937 25.7458 73.9814 25.7458C71.7395 25.7458 70.0991 24.2313 70.0991 21.9596Z" fill="white"/>
<path d="M81.09 15.6313H79.0122V25.6376H81.09V15.6313Z" fill="white"/>
<path d="M87.4876 23.0415V22.6629C87.1048 22.5006 86.6674 22.3925 86.1206 22.3925C85.2457 22.3925 84.6443 22.7711 84.6443 23.4201V23.4742C84.6443 24.0151 85.1364 24.3396 85.7925 24.3396C86.8314 24.2855 87.4876 23.7447 87.4876 23.0415ZM82.6758 23.4742C82.6758 21.8516 83.9334 21.0943 85.6832 21.0943C86.4487 21.0943 86.9955 21.2025 87.4876 21.4189V21.3107C87.4876 20.4453 86.9408 19.9585 85.9019 19.9585C85.0817 19.9585 84.5349 20.1208 83.8787 20.3371L83.3319 18.7686C84.1521 18.3899 84.9723 18.1736 86.23 18.1736C87.3782 18.1736 88.1984 18.4981 88.7452 18.9849C89.292 19.5258 89.5654 20.3371 89.5654 21.3107V25.5836H87.5423V24.7723C87.0502 25.3132 86.3393 25.6918 85.3004 25.6918C83.8241 25.7459 82.6758 24.9346 82.6758 23.4742Z" fill="white"/>
<path d="M95.6895 16.01H97.986L100.501 20.0666L103.071 16.01H105.368V25.5836H103.235V19.3635L100.501 23.4201H100.447L97.7673 19.3635V25.5836H95.6895V16.01Z" fill="white"/>
<path d="M107.555 18.2817H109.633V25.6376H107.555V18.2817ZM107.5 15.6313H109.687V17.4703H107.5V15.6313Z" fill="white"/>
<path d="M111.054 24.6101L111.929 23.2579C112.749 23.8528 113.569 24.1233 114.28 24.1233C114.882 24.1233 115.155 23.9069 115.155 23.5824V23.5283C115.155 23.0956 114.444 22.9334 113.624 22.6629C112.585 22.3384 111.437 21.9057 111.437 20.4453V20.3912C111.437 18.8767 112.64 18.0654 114.171 18.0654C115.1 18.0654 116.139 18.39 116.96 18.9308L116.139 20.3912C115.429 19.9585 114.663 19.6881 114.116 19.6881C113.624 19.6881 113.351 19.9044 113.351 20.1749V20.229C113.351 20.6617 114.062 20.8239 114.882 21.0944C115.921 21.4189 117.124 21.9057 117.124 23.2579V23.312C117.124 24.9346 115.866 25.6918 114.28 25.6918C113.187 25.7459 112.038 25.4214 111.054 24.6101Z" fill="white"/>
<path d="M118.819 23.5283V20.0667H117.944V18.2818H118.819V16.3887H120.897V18.2818H122.646V20.0667H120.897V23.2038C120.897 23.6906 121.115 23.9069 121.553 23.9069C121.935 23.9069 122.264 23.7987 122.592 23.6365V25.3132C122.154 25.5836 121.662 25.7459 120.951 25.7459C119.694 25.7459 118.819 25.205 118.819 23.5283Z" fill="white"/>
<path d="M124.177 18.2819H126.255V19.7422C126.693 18.7146 127.349 18.0655 128.606 18.1196V20.2831H128.497C127.075 20.2831 126.255 21.0944 126.255 22.8793V25.5837H124.177V18.2819Z" fill="white"/>
<path d="M134.02 23.0415V22.6629C133.637 22.5006 133.2 22.3925 132.653 22.3925C131.778 22.3925 131.176 22.7711 131.176 23.4201V23.4742C131.176 24.0151 131.669 24.3396 132.325 24.3396C133.364 24.2855 134.02 23.7447 134.02 23.0415ZM129.208 23.4742C129.208 21.8516 130.466 21.0943 132.215 21.0943C132.981 21.0943 133.528 21.2025 134.02 21.4189V21.3107C134.02 20.4453 133.473 19.9585 132.434 19.9585C131.614 19.9585 131.067 20.1208 130.411 20.3371L129.864 18.7686C130.684 18.3899 131.505 18.1736 132.762 18.1736C133.91 18.1736 134.731 18.4981 135.277 18.9849C135.824 19.5258 136.098 20.3371 136.098 21.3107V25.5836H133.965V24.7723C133.473 25.3132 132.762 25.6918 131.723 25.6918C130.356 25.7459 129.208 24.9346 129.208 23.4742Z" fill="white"/>
<path d="M139.98 15.6313H137.902V25.6376H139.98V15.6313Z" fill="white"/>
<path d="M32.5342 11.5748V8.59999H33.4637V11.5207C33.4637 12.4943 33.9558 12.9811 34.776 12.9811C35.5962 12.9811 36.0884 12.4943 36.0884 11.5207V8.5459H37.0179V11.4667C37.0179 12.9811 36.143 13.7924 34.776 13.7924C33.4091 13.8465 32.5342 13.0893 32.5342 11.5748Z" fill="white"/>
<path d="M38.1665 8.6001H39.0414L41.8847 12.224V8.6001H42.8143V13.8466H41.9941L39.0961 10.1146V13.8466H38.1665V8.6001Z" fill="white"/>
<path d="M45.1107 8.6001H44.1812V13.7385H45.1107V8.6001Z" fill="white"/>
<path d="M46.04 8.6001H47.079L48.61 12.5485L50.1957 8.6001H51.1799L48.9927 13.7926H48.2272L46.04 8.6001Z" fill="white"/>
<path d="M52.0552 8.6001H55.9374V9.41142H52.9847V10.7636H55.6094V11.5749H52.9847V12.9812H55.9374V13.7926H52.0552V8.6001Z" fill="white"/>
<path d="M59.3273 11.1422C59.9835 11.1422 60.4209 10.8177 60.4209 10.2768C60.4209 9.73595 60.0381 9.41142 59.3273 9.41142H57.9603V11.1422H59.3273ZM57.0308 8.6001H59.3273C59.9835 8.6001 60.4756 8.81645 60.8037 9.14098C61.0771 9.41142 61.2411 9.79003 61.2411 10.2768C61.2411 11.1422 60.749 11.629 59.9835 11.8454L61.4051 13.7926H60.3115L59.0539 12.0076H57.9603V13.7926H57.0308V8.6001Z" fill="white"/>
<path d="M62.0615 13.0352L62.6083 12.3861C63.1004 12.8189 63.5926 13.0352 64.2487 13.0352C64.7955 13.0352 65.1783 12.7648 65.1783 12.3861C65.1783 12.0075 64.9595 11.8453 64.03 11.5748C62.9364 11.3044 62.2802 10.9799 62.2802 10.0604C62.2802 9.19496 63.0458 8.5459 64.0847 8.5459C64.8502 8.5459 65.4517 8.76225 65.9985 9.19495L65.5063 9.8981C65.0142 9.57357 64.5768 9.35722 64.0847 9.35722C63.5379 9.35722 63.2098 9.62766 63.2098 9.95219C63.2098 10.3308 63.4285 10.5472 64.4674 10.7635C65.561 11.0339 66.1625 11.4126 66.1625 12.278C66.1625 13.2516 65.397 13.7924 64.3034 13.7924C63.4285 13.8465 62.7177 13.5761 62.0615 13.0352Z" fill="white"/>
<path d="M68.1854 8.6001H67.2559V13.7385H68.1854V8.6001Z" fill="white"/>
<path d="M71.4665 12.9271C72.5601 12.9271 73.271 12.224 73.271 11.1963C73.271 10.1687 72.5601 9.46551 71.4665 9.46551H70.4276V12.9812H71.4665V12.9271ZM69.5527 8.6001H71.5212C73.1616 8.6001 74.3099 9.73595 74.3099 11.1422C74.3099 12.6026 73.1616 13.7385 71.5212 13.7385H69.5527V8.6001Z" fill="white"/>
<path d="M78.1372 11.7372L77.2623 9.68186L76.3874 11.7372H78.1372ZM76.8249 8.6001H77.6997L79.9963 13.7926H79.012L78.4653 12.5485H76.0047L75.4579 13.7926H74.5283L76.8249 8.6001Z" fill="white"/>
<path d="M82.7849 12.9271C83.8785 12.9271 84.5893 12.224 84.5893 11.1963C84.5893 10.1687 83.8785 9.46551 82.7849 9.46551H81.746V12.9812H82.7849V12.9271ZM80.8711 8.6001H82.8396C84.48 8.6001 85.6282 9.73595 85.6282 11.1422C85.6282 12.6026 84.48 13.7385 82.8396 13.7385H80.8711V8.6001Z" fill="white"/>
<path d="M31.769 20.824C31.769 18.0655 33.9016 15.8479 36.8543 15.8479C38.604 15.8479 39.6429 16.3347 40.6818 17.146L39.3148 18.7687C38.5493 18.1737 37.8932 17.7951 36.7996 17.7951C35.2685 17.7951 34.0109 19.1473 34.0109 20.7699V20.824C34.0109 22.5548 35.2139 23.8529 36.9636 23.8529C37.7291 23.8529 38.44 23.6366 38.9868 23.258V21.9058H36.8543V20.0668H41.0646V24.2315C40.0804 25.0429 38.7134 25.746 36.9089 25.746C33.8469 25.746 31.769 23.6907 31.769 20.824Z" fill="white"/>
<path d="M47.3523 23.0415V22.6629C46.9696 22.5006 46.5321 22.3925 45.9853 22.3925C45.1105 22.3925 44.509 22.7711 44.509 23.4201V23.4742C44.509 24.0151 45.0011 24.3396 45.6573 24.3396C46.6415 24.2855 47.3523 23.7447 47.3523 23.0415ZM42.4858 23.4742C42.4858 21.8516 43.7435 21.0943 45.4932 21.0943C46.2587 21.0943 46.8055 21.2025 47.2976 21.4189V21.3107C47.2976 20.4453 46.7509 19.9585 45.7119 19.9585C44.8917 19.9585 44.3449 20.1208 43.6888 20.3371L43.142 18.7686C43.9622 18.3899 44.7824 18.1736 46.04 18.1736C47.1883 18.1736 48.0085 18.4981 48.5553 18.9849C49.1021 19.5258 49.3755 20.3371 49.3755 21.3107V25.5836H47.3523V24.7723C46.8602 25.3132 46.1494 25.6918 45.1105 25.6918C43.6341 25.7459 42.4858 24.9346 42.4858 23.4742Z" fill="white"/>
<path d="M56.8122 21.9596C56.8122 20.7156 55.992 19.9043 55.0078 19.9043C54.0235 19.9043 53.2033 20.7156 53.2033 21.9056V21.9596C53.2033 23.2037 54.0235 23.9609 55.0078 23.9609C55.992 23.9609 56.8122 23.2037 56.8122 21.9596ZM53.258 24.6641V25.6376H51.1802V15.6313H53.258V19.3634C53.7501 18.6603 54.461 18.1735 55.5545 18.1735C57.3043 18.1735 58.9447 19.5257 58.9447 21.9596V22.0137C58.9447 24.4477 57.3043 25.7999 55.5545 25.7999C54.4063 25.7458 53.7501 25.259 53.258 24.6641Z" fill="white"/>
<path d="M60.4756 18.2819H62.5534V19.7422C62.9909 18.7146 63.7017 18.0655 64.9046 18.1196V20.2831H64.7953C63.3736 20.2831 62.5534 21.0944 62.5534 22.8793V25.5837H60.4756V18.2819Z" fill="white"/>
<path d="M66.3809 18.2817H68.4587V25.6376H66.3809V18.2817ZM66.3262 15.6313H68.5134V17.4703H66.3262V15.6313Z" fill="white"/>
<path d="M75.2937 21.3647C75.1843 20.4452 74.6375 19.7961 73.708 19.7961C72.8331 19.7961 72.2863 20.3911 72.1223 21.3647H75.2937ZM70.0991 21.9596C70.0991 19.8502 71.6301 18.1194 73.7627 18.1194C76.2232 18.1194 77.3715 20.0125 77.3715 22.1219C77.3715 22.2842 77.3715 22.5005 77.3168 22.6628H72.1769C72.3957 23.5823 73.0518 24.1232 73.9814 24.1232C74.6922 24.1232 75.1843 23.9068 75.7858 23.3659L76.9888 24.3936C76.2779 25.259 75.2937 25.7458 73.9814 25.7458C71.7395 25.7458 70.0991 24.2313 70.0991 21.9596Z" fill="white"/>
<path d="M81.09 15.6313H79.0122V25.6376H81.09V15.6313Z" fill="white"/>
<path d="M87.4876 23.0415V22.6629C87.1048 22.5006 86.6674 22.3925 86.1206 22.3925C85.2457 22.3925 84.6443 22.7711 84.6443 23.4201V23.4742C84.6443 24.0151 85.1364 24.3396 85.7925 24.3396C86.8314 24.2855 87.4876 23.7447 87.4876 23.0415ZM82.6758 23.4742C82.6758 21.8516 83.9334 21.0943 85.6832 21.0943C86.4487 21.0943 86.9955 21.2025 87.4876 21.4189V21.3107C87.4876 20.4453 86.9408 19.9585 85.9019 19.9585C85.0817 19.9585 84.5349 20.1208 83.8787 20.3371L83.3319 18.7686C84.1521 18.3899 84.9723 18.1736 86.23 18.1736C87.3782 18.1736 88.1984 18.4981 88.7452 18.9849C89.292 19.5258 89.5654 20.3371 89.5654 21.3107V25.5836H87.5423V24.7723C87.0502 25.3132 86.3393 25.6918 85.3004 25.6918C83.8241 25.7459 82.6758 24.9346 82.6758 23.4742Z" fill="white"/>
<path d="M95.6895 16.01H97.986L100.501 20.0666L103.071 16.01H105.368V25.5836H103.235V19.3635L100.501 23.4201H100.447L97.7673 19.3635V25.5836H95.6895V16.01Z" fill="white"/>
<path d="M107.555 18.2817H109.633V25.6376H107.555V18.2817ZM107.5 15.6313H109.687V17.4703H107.5V15.6313Z" fill="white"/>
<path d="M111.054 24.6101L111.929 23.2579C112.749 23.8528 113.569 24.1233 114.28 24.1233C114.882 24.1233 115.155 23.9069 115.155 23.5824V23.5283C115.155 23.0956 114.444 22.9334 113.624 22.6629C112.585 22.3384 111.437 21.9057 111.437 20.4453V20.3912C111.437 18.8767 112.64 18.0654 114.171 18.0654C115.1 18.0654 116.139 18.39 116.96 18.9308L116.139 20.3912C115.429 19.9585 114.663 19.6881 114.116 19.6881C113.624 19.6881 113.351 19.9044 113.351 20.1749V20.229C113.351 20.6617 114.062 20.8239 114.882 21.0944C115.921 21.4189 117.124 21.9057 117.124 23.2579V23.312C117.124 24.9346 115.866 25.6918 114.28 25.6918C113.187 25.7459 112.038 25.4214 111.054 24.6101Z" fill="white"/>
<path d="M118.819 23.5283V20.0667H117.944V18.2818H118.819V16.3887H120.897V18.2818H122.646V20.0667H120.897V23.2038C120.897 23.6906 121.115 23.9069 121.553 23.9069C121.935 23.9069 122.264 23.7987 122.592 23.6365V25.3132C122.154 25.5836 121.662 25.7459 120.951 25.7459C119.694 25.7459 118.819 25.205 118.819 23.5283Z" fill="white"/>
<path d="M124.177 18.2819H126.255V19.7422C126.693 18.7146 127.349 18.0655 128.606 18.1196V20.2831H128.497C127.075 20.2831 126.255 21.0944 126.255 22.8793V25.5837H124.177V18.2819Z" fill="white"/>
<path d="M134.02 23.0415V22.6629C133.637 22.5006 133.2 22.3925 132.653 22.3925C131.778 22.3925 131.176 22.7711 131.176 23.4201V23.4742C131.176 24.0151 131.669 24.3396 132.325 24.3396C133.364 24.2855 134.02 23.7447 134.02 23.0415ZM129.208 23.4742C129.208 21.8516 130.466 21.0943 132.215 21.0943C132.981 21.0943 133.528 21.2025 134.02 21.4189V21.3107C134.02 20.4453 133.473 19.9585 132.434 19.9585C131.614 19.9585 131.067 20.1208 130.411 20.3371L129.864 18.7686C130.684 18.3899 131.505 18.1736 132.762 18.1736C133.91 18.1736 134.731 18.4981 135.277 18.9849C135.824 19.5258 136.098 20.3371 136.098 21.3107V25.5836H133.965V24.7723C133.473 25.3132 132.762 25.6918 131.723 25.6918C130.356 25.7459 129.208 24.9346 129.208 23.4742Z" fill="white"/>
<path d="M139.98 15.6313H137.902V25.6376H139.98V15.6313Z" fill="white"/>
<path fill-rule="evenodd" clip-rule="evenodd" d="M24.8245 11.8993C25.3713 11.7371 25.8634 11.4125 25.6994 10.7635L25.59 10.439L23.3481 11.0339L23.4575 11.3585C23.5669 11.8993 24.059 12.1157 24.8245 11.8993Z" fill="white"/>
<path fill-rule="evenodd" clip-rule="evenodd" d="M3.062 20.0666L3.88219 19.6339L2.95264 19.4717L3.062 20.0666Z" fill="white"/>
<path fill-rule="evenodd" clip-rule="evenodd" d="M20.4502 6.49049C20.8329 6.86911 21.3797 6.76093 21.9265 6.22005C22.3093 5.78735 22.528 5.24647 22.0359 4.81376L21.8172 4.59741L20.2314 6.27414L20.4502 6.49049Z" fill="white"/>
<path fill-rule="evenodd" clip-rule="evenodd" d="M23.5121 23.2579C23.184 23.1497 22.9653 23.2579 22.8559 23.5824C22.8013 23.6906 22.8013 23.7446 22.8013 23.7987L23.8402 24.1233L23.8949 23.9069C24.0042 23.6365 23.8402 23.366 23.5121 23.2579Z" fill="white"/>
<path fill-rule="evenodd" clip-rule="evenodd" d="M4.75722 23.0415C5.03062 22.9875 5.19466 22.7711 5.0853 22.5007C5.0853 22.3925 5.03062 22.2843 4.97594 22.2302L4.04639 22.5007L4.10107 22.717C4.21043 23.0415 4.42914 23.0956 4.75722 23.0415Z" fill="white"/>
<path fill-rule="evenodd" clip-rule="evenodd" d="M5.74158 25.746C6.01498 25.6378 6.17902 25.4215 6.01498 25.097C5.9603 24.9888 5.90562 24.9347 5.90562 24.8806L4.92139 25.2592L4.97607 25.4756C5.14011 25.8001 5.4135 25.8542 5.74158 25.746Z" fill="white"/>
<path fill-rule="evenodd" clip-rule="evenodd" d="M3.93685 22.7712L3.88217 22.6089L2.84326 22.9334C2.84326 22.9875 2.84326 23.0957 2.89794 23.1498C3.0073 23.5284 3.33538 23.5825 3.60878 23.5284C3.88217 23.4202 4.04621 23.1498 3.93685 22.7712Z" fill="white"/>
<path fill-rule="evenodd" clip-rule="evenodd" d="M24.9887 21.3108L25.098 20.7158L24.1685 20.824L24.9887 21.3108Z" fill="white"/>
<path fill-rule="evenodd" clip-rule="evenodd" d="M23.8402 7.73462L22.9106 7.95097L23.2387 8.43776L23.8402 7.73462Z" fill="white"/>
<path fill-rule="evenodd" clip-rule="evenodd" d="M10.3344 34.8327L10.8265 34.0754L9.95166 34.3459L10.3344 34.8327Z" fill="white"/>
<path fill-rule="evenodd" clip-rule="evenodd" d="M28.2144 14.4956C28.2691 10.1145 26.9021 6.43648 24.3322 3.89434C21.8169 1.3522 18.3174 0 14.2165 0C14.1618 0 14.1618 0 14.1071 0C13.8337 0 13.5603 0 13.3416 0C5.41304 0.378616 0.109111 6.05786 -0.000248565 14.4956C-0.218967 30.6138 13.0135 41.9723 14.2711 43C15.0913 42.3509 19.8485 37.9698 23.5667 31.317L23.6214 31.2088C26.6287 25.6918 28.1598 20.0667 28.2144 14.4956ZM25.5898 23.5283C25.5351 23.6906 25.4258 23.7447 25.2617 23.7987L24.2775 23.961C24.1135 23.961 24.0588 24.0151 24.0041 24.1774V24.2314L24.9883 24.556L25.1524 24.2855L25.2617 24.3396L24.9337 25.3132L24.8243 25.2591V24.9346L22.6918 24.2314L22.5278 24.5019L22.4184 24.4478L22.6918 23.5283C22.8558 23.0415 23.1292 22.717 23.6214 22.8792C24.0041 22.9874 24.1681 23.3119 24.0588 23.8528C24.1681 23.6906 24.2775 23.5283 24.5509 23.5283L25.2617 23.4201C25.3711 23.4201 25.4258 23.312 25.5351 23.2038L25.6445 23.2579C25.6445 23.2038 25.6445 23.366 25.5898 23.5283ZM26.1913 20.9321H26.0819V20.6075L25.3164 20.7157L25.1524 21.4189L25.8085 21.7975L25.9726 21.527H26.0819L25.9179 22.2843H25.8085V21.9597L23.4573 20.5535V20.4453L26.0819 20.1208L26.246 19.8503H26.3553L26.1913 20.9321ZM26.5194 18.8767H26.41L26.3553 18.5522L24.1135 18.3358L24.0041 18.6063H23.8948L24.0041 17.5786H24.1135L24.1682 17.9031L26.41 18.1195L26.5194 17.3623L25.9179 17.0918V16.9836L26.7381 17.0918L26.5194 18.8767ZM25.4805 9.73585L25.5898 9.68176L25.8632 10.7635C26.0819 11.5208 25.7539 12.0616 24.9337 12.278C24.0041 12.4943 23.4573 12.1698 23.2386 11.4126L22.9652 10.3849L23.0746 10.3308L23.2386 10.6013L25.4258 10.0063L25.4805 9.73585ZM24.5509 7.46415L24.6056 7.57233L22.8558 9.57359L22.9105 9.84403L22.8012 9.89811L22.2544 8.97862L22.3637 8.92453L22.5824 9.14088L23.0746 8.6L22.6918 7.95094L21.981 8.11321L22.0356 8.43774L21.9263 8.49182L21.5435 7.84277L21.6529 7.78868L21.8716 8.00503L24.5509 7.46415ZM21.4342 4.00252L22.2544 4.75975C22.8558 5.30063 22.9105 5.8956 22.309 6.54465C21.6529 7.2478 20.9967 7.2478 20.3953 6.70692L19.5751 5.94969L19.6297 5.84151L19.9031 6.00377L21.4888 4.32704L21.3248 4.0566L21.4342 4.00252ZM18.2081 5.13836L18.5361 5.19245L19.5751 3.1912L19.3563 2.97484L19.411 2.86667L20.3406 3.29937L20.2312 3.40755L19.9031 3.35346L18.8642 5.35472L19.0829 5.57107L19.0283 5.67925L18.0987 5.24654L18.2081 5.13836ZM16.2943 3.84025L16.4036 3.89434C16.349 4.32704 16.4036 4.59748 16.7864 4.70566C17.0051 4.75975 17.2785 4.65157 17.3332 4.43522C17.4972 3.73208 16.349 3.6239 16.5677 2.75849C16.677 2.2717 17.0598 2.10943 17.4972 2.21761C17.716 2.2717 17.9347 2.37987 18.044 2.48805L17.88 3.08302L17.7706 3.02893C17.8253 2.7044 17.716 2.37987 17.4426 2.32579C17.2238 2.2717 17.0598 2.37987 16.9504 2.59623C16.7864 3.29937 17.9347 3.40755 17.716 4.27296C17.6066 4.75975 17.1692 4.9761 16.7317 4.86792C16.513 4.81384 16.2943 4.65157 16.1302 4.5434L16.2943 3.84025ZM13.3963 4.32704L13.6697 4.27296L13.7243 2.05535L13.4509 1.94717V1.83899H14.4352C14.982 1.83899 15.3101 2.00126 15.3101 2.54214C15.3101 2.92075 15.0913 3.1912 14.5445 3.24528C14.7086 3.29937 14.8726 3.35346 15.0367 3.6239L15.3101 4.21887C15.3647 4.32704 15.4194 4.38113 15.5834 4.38113V4.48931C15.5288 4.48931 15.3647 4.5434 15.2007 4.5434C15.0367 4.5434 14.982 4.48931 14.8726 4.27296L14.4352 3.40755C14.3805 3.29937 14.3258 3.24528 14.2165 3.24528H14.1618V4.27296L14.4899 4.38113V4.48931H13.4509L13.3963 4.32704ZM11.9746 2.00126L12.1386 2.7044H12.0293L11.7012 2.21761L10.9904 2.43396L11.2638 3.40755L11.7012 3.29937V2.86667H11.8106L12.084 3.78616H11.9746L11.7559 3.46164L11.3184 3.56981L11.5918 4.65157L12.3574 4.43522L12.412 3.78616H12.5214L12.6854 4.5434L10.9904 4.9761L10.9357 4.92201L11.2091 4.75975L10.6076 2.59623H10.2795L10.2248 2.48805L11.9746 2.00126ZM7.87362 3.67799L7.9283 3.78616L7.70958 4.0566L9.24061 5.30063L8.74849 3.35346L8.42042 3.46164L8.36574 3.35346L9.02189 2.92075L9.07657 3.02893L8.85785 3.24528L9.45933 5.78742L9.34997 5.84151L7.27214 4.21887L7.05342 4.32704L6.99875 4.21887L7.87362 3.67799ZM6.12387 5.08428L6.23323 5.19245L6.06919 5.46289L7.70958 6.97736L7.98298 6.81509L8.09234 6.86918L7.3815 7.62642L7.32682 7.57233L7.49086 7.30189L5.85047 5.78742L5.5224 5.94969L5.41304 5.84151L6.12387 5.08428ZM3.82733 8.22138L6.01451 8.05912L4.59284 7.30189L4.37412 7.51824L4.26476 7.46415L4.64752 6.76101L4.75688 6.81509L4.7022 7.13962L6.88939 8.32956L6.83471 8.43774L4.10072 8.65409L5.90515 9.62767L6.12387 9.41132L6.23323 9.46541L5.85047 10.1686L5.74111 10.1145L5.79579 9.78994L3.82733 8.70818L3.60861 8.92453L3.49925 8.87044L3.82733 8.22138ZM2.67905 11.3585L2.78841 11.4126V11.7371L4.31944 12.1157C4.81156 12.2239 5.08496 12.0616 5.19432 11.683C5.30368 11.3585 5.08496 11.034 4.53816 10.8717L3.06181 10.4931L2.95245 10.8176L2.84309 10.7635L3.06181 10.0063L3.17117 10.0604V10.3849L4.64752 10.7635C5.30368 10.9258 5.57707 11.4126 5.41304 11.8453C5.30368 12.278 5.03028 12.7107 4.26476 12.4943L2.73373 12.1157L2.56969 12.3862L2.46034 12.3321L2.67905 11.3585ZM2.78841 15.5233C3.77265 15.4692 4.21008 15.956 4.26476 16.6591C4.26476 16.9296 4.21008 17.3082 4.1554 17.4704L3.55393 17.5245V17.4164C3.99136 17.2541 4.1554 17.0377 4.1554 16.6591C4.10072 16.1723 3.55393 15.9019 2.89777 15.956C2.18694 16.0101 1.64014 16.2805 1.69482 16.8755C1.69482 17.0377 1.7495 17.2 1.80418 17.2541L2.62437 17.2L2.67905 16.8755H2.78841L2.84309 17.9031H2.73373L2.62437 17.6327L1.80418 17.6868C1.69482 17.5245 1.58546 17.1459 1.53078 16.8755C1.42142 16.1723 1.80418 15.6314 2.78841 15.5233ZM2.2963 21.2566H2.18694L1.96822 20.2289H2.07758L2.24162 20.4994L2.89777 20.1208L2.78841 19.4176L2.0229 19.3094V19.634H1.91354L1.7495 18.8767H1.85886L2.0229 19.1472L4.59284 19.5799V19.6881L2.35098 20.9862L2.2963 21.2566ZM2.73373 23.2579L2.40566 22.2843L2.51501 22.2302L2.73373 22.5006L4.86624 21.8516V21.527H4.92092L5.19432 22.5006C5.35836 22.8792 5.41304 23.2579 4.92092 23.4201C4.48348 23.5283 4.31944 23.366 4.1554 23.0415C4.26476 23.4201 4.1554 23.7987 3.77265 23.9069C3.17117 24.0692 2.89777 23.7987 2.73373 23.2579ZM4.31944 27.1522L4.21008 27.2063C4.1554 27.1522 4.04604 26.9899 3.99137 26.8818C3.93669 26.7195 3.99136 26.6113 4.10072 26.5031L4.75688 25.7459C4.86624 25.6377 4.86624 25.5296 4.81156 25.4214L4.75688 25.3673L3.82733 25.7459L3.88201 26.0704L3.77265 26.1245L3.38989 25.1509L3.49925 25.0969L3.71797 25.3673L5.74111 24.556L5.68643 24.2314L5.79579 24.1774L6.17855 25.0428C6.39727 25.5296 6.39727 25.9082 5.90515 26.1245C5.57708 26.2868 5.19432 26.1786 4.9756 25.6918C5.03028 25.8541 4.9756 26.0704 4.81156 26.2868L4.37412 26.8277C4.26476 26.8818 4.26476 26.9899 4.31944 27.1522ZM5.08496 28.883L4.64752 27.9635L4.75688 27.9094L4.92092 28.1258L6.88939 27.1522L6.83471 26.8277L6.94407 26.7736L7.3815 27.6931L7.27214 27.7472L7.1081 27.5308L5.13964 28.5044L5.19432 28.8289L5.08496 28.883ZM5.5224 29.7484L5.63175 29.6943L5.85047 29.9107L7.76426 28.8289L7.6549 28.5044L7.76426 28.4503L8.63913 29.9648L8.09234 30.2893L8.03766 30.1811L8.42042 29.7484L8.03766 29.0994L7.16278 29.5862L7.3815 29.9648L7.76426 29.8566L7.81894 29.9107L6.99875 30.3975L6.94407 30.3434L7.21746 30.0189L6.99875 29.6403L6.01451 30.1811L6.39727 30.8302H7.1081L7.16278 30.9384L6.45195 31.317L5.5224 29.7484ZM7.05342 32.1824L7.16278 32.1283L7.43618 32.3447L9.24061 31.1006L9.13125 30.8302L9.24061 30.7761L9.84209 31.6415L9.73273 31.6956L9.51401 31.4792L7.6549 32.7233L8.09234 33.3723L8.74849 33.2101L8.80317 33.2642L8.14702 33.6969L7.05342 32.1824ZM10.2795 36.239L10.1702 36.2931L9.51401 35.4818L9.62337 35.4277L9.89677 35.5899L10.2795 34.9409L9.78741 34.3459L9.07657 34.5623L9.18593 34.8327L9.07657 34.8868L8.58445 34.2918L8.69381 34.2377L8.96721 34.4L11.4825 33.5887L11.5372 33.6969L10.1702 35.9145L10.2795 36.239ZM14.3258 35.5358C14.2711 35.5358 5.5224 26.2327 5.46772 15.8478C5.46772 9.30314 9.62337 5.84151 14.3258 5.84151C19.1376 5.84151 22.6918 9.30314 22.6918 15.8478C22.6918 26.2868 14.4352 35.5358 14.3258 35.5358ZM20.5046 33.805L20.3953 33.7509L20.5046 33.4264L18.8642 32.2906L20.2312 34.1836L20.1765 34.2918L17.8253 33.6969L19.4657 34.8327L19.7391 34.6164L19.8485 34.6704L19.411 35.3195L19.3017 35.2654L19.411 34.9409L17.5519 33.6969L17.3332 33.9132L17.2238 33.8591L17.6613 33.2642L19.7391 33.805L18.4815 32.0742L18.9189 31.4792L19.0283 31.5333L18.9189 31.8579L20.778 33.1019L21.0514 32.8855L21.1608 32.9396L20.5046 33.805ZM21.5982 32.0742L21.4888 32.0201L21.5435 31.6956L19.6844 30.6138L19.411 30.8302L19.3017 30.7761L19.8485 29.9107L19.9578 29.9648L19.8485 30.2893L21.7622 31.4252L21.981 31.2088L22.0903 31.2629L21.5982 32.0742ZM23.0199 29.8025C22.9105 30.0189 22.6918 30.1811 22.5278 30.2893L21.9263 30.0189L21.981 29.9107C22.3637 30.0189 22.6918 30.0189 22.8558 29.6943C22.9652 29.478 22.9652 29.2075 22.6918 29.0994C22.0356 28.7748 21.6529 29.8566 20.8327 29.478C20.3953 29.2616 20.2859 28.8289 20.5046 28.4503C20.614 28.288 20.778 28.0717 20.8874 27.9635L21.4342 28.234L21.3795 28.3421C21.0514 28.234 20.778 28.288 20.614 28.5585C20.5046 28.7208 20.5593 28.9371 20.778 29.0994C21.4342 29.4239 21.8169 28.3421 22.5824 28.7208C23.1292 28.883 23.2386 29.3157 23.0199 29.8025ZM21.8169 26.395L21.5982 26.8818L22.0356 27.2604L21.981 27.3686L21.3248 27.0981L22.145 25.205L22.8012 25.4755L22.7465 25.5836L22.145 25.5296L21.9263 26.0164L24.0041 26.8818L24.2228 26.6113L24.3322 26.6654L23.8948 27.639L23.8401 27.5849L23.8948 27.2604L21.8169 26.395Z" fill="white"/>
<path fill-rule="evenodd" clip-rule="evenodd" d="M14.8729 2.48815C14.8729 2.16362 14.7089 1.94727 14.3808 1.94727C14.2715 1.94727 14.2168 1.94727 14.1621 1.94727V3.02903H14.3808C14.6542 3.08311 14.8729 2.86676 14.8729 2.48815Z" fill="white"/>
<path d="M12.4124 25.9622C12.3577 25.9622 12.0296 25.9622 11.9749 26.2326C11.9202 26.503 12.1936 26.6653 12.303 26.6653C12.4124 26.503 12.467 26.1244 12.4124 25.9622Z" fill="white"/>
<path d="M15.9665 25.259C17.4429 25.1508 17.8256 24.2854 17.8256 24.2854C17.0055 24.1232 16.4587 24.664 16.0759 24.9345C15.6931 25.2049 15.2557 25.3672 15.2557 25.3131C15.4197 25.0967 15.6385 24.9345 15.7478 24.9345C17.4429 24.1772 17.5522 22.9332 17.5522 22.9332C16.0759 23.42 16.0212 24.2854 15.5838 24.8263C15.3651 25.0967 15.0917 25.4213 15.0917 25.3672C15.037 25.3131 15.1463 24.8263 15.2557 24.7181C15.9665 24.0691 15.8025 22.9332 15.8025 22.9332C14.9823 23.6364 15.0917 24.3395 14.9276 25.3131C14.8729 25.6917 14.5449 25.9081 13.9981 26.9357C13.9434 26.7194 13.5606 26.1785 13.5606 26.1785C13.3419 25.9081 13.1779 25.5835 13.1779 25.5835C13.0138 25.3131 13.0685 25.0427 13.0685 25.0427L13.2326 24.3395C13.2326 24.3395 13.3419 23.9609 13.1779 23.9068C13.0685 23.8527 12.9045 24.0691 12.8498 24.0691C12.8498 24.0691 12.7951 24.1232 12.7404 24.0691C12.6311 24.015 12.7951 23.6364 12.8498 23.5823C12.9045 23.5282 13.0138 23.1496 12.7951 23.0414C12.5764 22.9873 12.5217 23.2577 12.467 23.3118C12.3577 23.42 12.1936 23.3659 12.2483 23.2037C12.2483 23.1496 12.3577 22.9873 12.303 22.825C12.303 22.4464 11.9749 22.5546 11.9202 22.6628C11.8109 22.825 11.7015 22.771 11.7015 22.7169C11.4281 22.4464 11.0454 22.6087 10.8267 22.771C10.6079 22.9332 10.3345 23.3118 10.5533 23.5823C10.5533 23.6364 10.6079 23.7445 10.4439 23.7986C10.2799 23.8527 10.1705 24.1232 10.4986 24.2313C10.6626 24.2854 10.8813 24.2313 10.8813 24.2313C10.9907 24.2313 11.0454 24.3936 10.936 24.4477C10.8813 24.5018 10.5533 24.4477 10.5533 24.7181C10.5533 24.9345 10.9907 24.8804 11.0454 24.8804C11.1001 24.8804 11.5375 24.7722 11.5375 24.8804C11.5375 24.9345 11.4828 24.9886 11.4828 24.9886C11.4281 25.0427 11.2094 25.0967 11.2641 25.259C11.2641 25.4213 11.6468 25.4213 11.6468 25.4213H12.3577C12.3577 25.4213 12.6311 25.4213 12.8498 25.6376C12.8498 25.6376 13.1232 25.9081 13.2326 26.1785C13.2326 26.1785 13.2326 26.2326 13.1779 26.2326C13.1232 26.2326 12.9045 26.1785 12.9045 26.1785C12.8498 26.1244 12.7951 25.854 12.4124 25.7999C12.3577 25.7999 12.3577 25.854 12.303 25.854C12.3577 26.0703 12.303 26.3949 12.1936 26.5571C12.1936 26.6112 12.2483 26.6112 12.303 26.6112C12.6858 26.6112 12.7404 26.503 12.8498 26.3949C12.9045 26.3408 13.2872 26.3408 13.4513 26.5571C13.4513 26.5571 13.5606 26.7194 13.6153 26.8816C13.506 26.8816 13.4513 26.9357 13.4513 26.9898C13.4513 27.0439 13.4513 27.0439 13.506 27.0439H13.6153C13.6153 27.0439 13.5606 27.0439 13.506 27.0439C13.506 27.0439 13.4513 27.098 13.4513 27.1521C13.4513 27.2062 13.4513 27.2062 13.506 27.2603C13.4513 27.2603 13.4513 27.3144 13.4513 27.3684C13.4513 27.4225 13.4513 27.4225 13.506 27.4766C13.67 27.6389 13.67 27.693 13.67 27.7471C13.67 27.8011 13.67 27.8011 13.7247 27.8552C13.67 27.9093 13.67 27.9093 13.67 27.9634C13.67 28.0175 13.7247 28.0175 13.7794 28.0716V28.1798C13.7794 28.6125 13.0138 28.9911 13.0138 28.9911C13.0138 28.9911 12.6858 29.1533 12.5217 29.2074C12.2483 29.3156 11.8656 29.3697 11.8656 29.4238C11.8656 29.4779 12.303 29.4238 12.6858 29.3156C13.1779 29.2074 13.5606 28.937 13.5606 28.9911C13.6153 29.0452 13.2326 29.3697 12.9045 29.5861C12.6858 29.7483 12.467 29.8565 12.467 29.9106C12.467 29.9647 12.6858 29.9647 12.9045 29.9106C13.0685 29.8565 13.1779 29.6942 13.2326 29.6942C13.2872 29.6942 13.3419 30.1269 13.4513 30.1269C13.506 30.1269 13.5606 28.9911 14.0528 28.937C14.4902 28.9911 14.5449 30.1269 14.6542 30.1269C14.7089 30.1269 14.7636 29.6942 14.8729 29.6942C14.9276 29.6942 15.037 29.8565 15.201 29.9106C15.4197 29.9647 15.6385 29.9647 15.6385 29.9106C15.6385 29.9106 15.4197 29.7483 15.201 29.5861C14.8729 29.3156 14.4902 29.0452 14.5449 28.9911C14.5449 28.937 14.9823 29.2074 15.4197 29.3156C15.8025 29.4238 16.2399 29.4779 16.2399 29.4238C16.2399 29.3697 15.9119 29.3156 15.5838 29.2074C15.3651 29.1533 15.0917 28.9911 15.0917 28.9911C15.0917 28.9911 14.3262 28.6125 14.3262 28.1798V28.0716C14.3808 28.0716 14.4355 28.0175 14.4355 27.9634C14.4355 27.9093 14.4355 27.9093 14.3808 27.8552C14.4355 27.8011 14.4355 27.8011 14.4355 27.7471C14.4355 27.693 14.4355 27.693 14.3808 27.6389C14.4355 27.5848 14.4355 27.5848 14.4355 27.5307C14.4355 27.4766 14.4355 27.4766 14.3808 27.4225C14.3808 27.4225 14.4355 27.3684 14.4355 27.3144C14.4355 27.2603 14.4355 27.2603 14.3808 27.2062L14.4355 27.1521C14.4355 27.098 14.3808 27.0439 14.2715 27.0439C14.3262 26.9357 14.4355 26.7194 14.4902 26.6112C14.5996 26.4489 15.037 26.3949 15.0917 26.4489C15.1463 26.503 15.3104 26.7194 15.6931 26.7194C16.0212 26.7194 16.2399 26.503 16.2399 26.2326C16.2399 25.9622 15.9665 25.7999 15.6385 25.854C15.3104 25.854 15.201 26.1244 15.0917 26.2326C14.9823 26.3408 14.7636 26.3408 14.7089 26.2867C14.6542 26.1785 15.3104 25.3131 15.9665 25.259ZM16.2946 24.9345L17.5522 24.3395H17.6069V24.3936C17.6616 24.3936 16.3493 24.9345 16.2946 24.9345ZM15.9119 24.664L17.1695 23.3659C17.1695 23.3659 17.2242 23.3118 17.2242 23.3659C17.2242 23.3659 17.2789 23.42 17.2242 23.42C17.2242 23.42 15.9665 24.664 15.9119 24.664C15.9119 24.7181 15.8572 24.7181 15.9119 24.664ZM15.7478 23.3118C15.8025 23.3118 15.8572 23.3118 15.8572 23.3118L15.3651 24.5559H15.3104C15.2557 24.61 15.7478 23.3118 15.7478 23.3118ZM12.9592 24.3936C12.9592 24.3936 12.6311 24.7722 12.5764 24.7722C12.5764 24.8263 12.5217 24.8263 12.5764 24.8804C12.5764 24.9345 12.7404 25.0967 12.7404 25.0967V25.1508H12.6858C12.6858 25.1508 12.6311 25.0967 12.6311 25.0427C12.6311 25.0427 12.5764 24.9886 12.5217 25.0427L11.9749 25.2049C11.9202 25.2049 11.9202 25.2049 11.9202 25.1508C11.9202 25.0967 11.9202 25.0967 11.9749 25.0967C11.9749 25.0967 12.467 24.9886 12.5217 24.9886C12.5764 24.9886 12.5764 24.9345 12.5217 24.9345C12.5217 24.9345 12.1936 24.4477 12.139 24.4477C12.139 24.4477 12.0843 24.3936 12.0843 24.4477C12.0296 24.4477 11.5375 24.664 11.5375 24.664C11.4828 24.664 11.4828 24.664 11.4828 24.6099C11.4828 24.5559 11.4828 24.5559 11.5375 24.5559C11.5375 24.5559 12.0296 24.4477 12.0296 24.3936C12.0843 24.3936 12.0843 24.3395 12.0296 24.3395C12.0296 24.2854 11.7562 23.9609 11.7562 23.9609C11.7562 23.9609 11.7015 23.9068 11.6468 23.9068C11.5922 23.9068 11.1001 24.1232 11.1001 24.1232C11.0454 24.1232 11.0454 24.1232 11.0454 24.0691C11.0454 24.015 11.0454 24.015 11.1001 24.015L11.5922 23.8527C11.6469 23.8527 11.6469 23.7986 11.5922 23.7986L11.1547 23.3118V23.2577H11.2094C11.2094 23.2577 11.5375 23.6905 11.5922 23.7445C11.6469 23.7986 11.6468 23.7445 11.6468 23.7445L11.9202 23.2577C11.9202 23.2037 11.9749 23.2037 11.9749 23.2577C11.9749 23.2577 12.0296 23.3118 11.9749 23.3118C11.9749 23.3118 11.6468 23.7445 11.6468 23.7986C11.6468 23.7986 11.6468 23.8527 11.6468 23.9068C11.6468 23.9609 11.9202 24.2313 11.9749 24.2854H12.0296C12.0296 24.2313 12.303 23.8527 12.303 23.8527C12.303 23.8527 12.3577 23.7986 12.3577 23.8527C12.4124 23.8527 12.4124 23.9068 12.3577 23.9068L12.0296 24.3936C12.0296 24.3936 11.9749 24.4477 12.0296 24.5018C12.0843 24.5559 12.303 24.8263 12.303 24.8804H12.3577C12.3577 24.8263 12.6858 24.5018 12.6858 24.5018C12.6858 24.5018 12.7404 24.4477 12.7404 24.5018C12.9592 24.3395 12.9592 24.3936 12.9592 24.3936Z" fill="white"/>
<path d="M14.1074 20.1207C14.4355 20.1207 14.7089 19.9044 14.7089 19.6339V19.5798C14.7089 19.5798 14.7089 19.5798 14.7089 19.6339C14.6542 19.9044 14.4355 20.1207 14.1074 20.1207Z" fill="white"/>
<path d="M9.07705 11.9534L8.4209 12.4942L9.07705 11.9534Z" fill="white"/>
<path d="M9.24072 11.8994C9.8422 12.1158 10.4984 12.1699 11.0452 12.1699C10.553 12.1699 9.8422 12.1158 9.24072 11.8994Z" fill="white"/>
<path d="M13.5057 19.5258C13.287 19.4176 12.9042 19.3635 12.3574 19.3635C12.8495 19.3635 13.287 19.4176 13.5057 19.5258Z" fill="white"/>
<path d="M19.1381 18.498C19.0288 18.5521 17.9898 19.093 16.7869 18.9307C16.7869 18.9307 15.4199 18.7144 14.1623 19.2553H14.1076C12.85 18.7144 11.483 18.8766 11.483 18.9307C10.28 19.093 9.18642 18.498 9.18642 18.498H9.13174V11.9534L8.47559 12.4942V18.9307C8.58495 19.0389 9.18642 19.5257 10.4441 19.5257C10.6081 19.5257 10.8268 19.5257 10.9908 19.4716C10.9908 19.4716 11.647 19.3634 12.3578 19.3634C12.9046 19.3634 13.2874 19.4175 13.5061 19.5257H13.5608V19.5798C13.5608 19.5798 13.5608 19.5798 13.5608 19.6339C13.5608 19.9043 13.8342 20.1207 14.1623 20.1207C14.4903 20.1207 14.7637 19.9043 14.7637 19.6339V19.5798V19.5257H14.8184C15.0371 19.4175 15.4199 19.3093 16.0214 19.3093C16.6775 19.3093 17.3337 19.4175 17.3884 19.4175C17.6071 19.4175 17.7711 19.4716 17.9352 19.4716C19.1928 19.4716 19.7943 18.9848 19.9036 18.8766V12.4942L19.2475 11.9534V18.498H19.1381Z" fill="white"/>
<path d="M12.3027 12.0615C13.3416 12.0615 13.8338 12.4942 13.9978 12.6024C13.8884 12.4942 13.3416 12.0615 12.3027 12.0615Z" fill="white"/>
<path d="M14.9277 16.4427C14.9277 16.2804 14.873 16.2263 14.7637 16.2263C14.709 16.2263 14.709 16.2263 14.6543 16.2263V16.7131H14.709C14.873 16.659 14.9277 16.5508 14.9277 16.4427Z" fill="white"/>
<path d="M17.1693 12.1699C17.0599 12.1699 16.9506 12.1699 16.8412 12.1699C16.7865 12.1699 16.7865 12.1699 16.7318 12.1699H16.6772H16.6225H16.5678C16.5678 12.1699 16.5678 12.1699 16.5131 12.1699C16.2944 12.1158 16.0757 12.1158 15.9116 12.1158C14.9274 12.1158 14.3806 12.4944 14.2166 12.6566C14.1619 12.6566 14.1072 14.0088 14.1072 14.0088L13.9979 12.6566C13.8885 12.5485 13.3417 12.1158 12.3028 12.1158C12.0841 12.1158 11.8653 12.1158 11.7013 12.1699C11.6466 12.1699 11.3732 12.2239 11.0452 12.2239C10.553 12.2239 9.8422 12.1699 9.24072 11.9535V18.4982C9.45944 18.6063 10.389 19.039 11.4279 18.8768C11.4826 18.8768 12.7402 18.7145 13.9979 19.2013L14.1072 17.8491L14.2166 19.2013C15.4742 18.7145 16.7318 18.8768 16.7865 18.8768C17.8254 19.039 18.755 18.5522 18.9737 18.4982V11.8994C18.3722 12.1158 17.6614 12.1699 17.1693 12.1699ZM15.857 15.6315L15.9663 15.5774V14.6038H15.857V14.5497H16.3491C16.6772 14.5497 16.8959 14.712 16.8959 15.0906C16.8959 15.4692 16.6772 15.6856 16.3491 15.6856L15.857 15.6315ZM14.654 15.6315L14.7634 15.5774V14.6038H14.654V14.5497H14.9821L15.4742 15.307V14.6038H15.3648V14.5497H15.6929V14.6038H15.5289V15.6856H15.4742L14.818 14.712V15.5774L14.9274 15.6315V15.6856L14.654 15.6315ZM13.0136 14.4956C13.123 14.4956 13.287 14.5497 13.3417 14.5497V14.8202H13.287C13.2323 14.6038 13.123 14.5497 13.0136 14.5497C12.7949 14.5497 12.6855 14.7661 12.6855 15.0906C12.6855 15.4151 12.7949 15.6315 13.0136 15.6315C13.123 15.6315 13.2323 15.5233 13.287 15.361H13.3417V15.6315C13.287 15.6856 13.123 15.7397 13.0136 15.7397C12.6855 15.7397 12.4668 15.5774 12.4668 15.1447C12.5215 14.712 12.7402 14.4956 13.0136 14.4956ZM10.4984 17.3082C10.389 17.3082 10.2796 17.2541 10.225 17.2541V16.9837H10.2796C10.2796 17.146 10.389 17.3082 10.553 17.3082C10.6624 17.3082 10.7171 17.2541 10.7171 17.146C10.7171 16.8214 10.225 16.9296 10.225 16.4969C10.225 16.2805 10.389 16.1724 10.553 16.1724C10.6624 16.1724 10.7171 16.2265 10.8264 16.2265V16.4969H10.7718C10.7718 16.3346 10.6624 16.2265 10.553 16.2265C10.4984 16.2265 10.389 16.2805 10.389 16.3887C10.389 16.6592 10.8811 16.6051 10.8811 17.0378C10.8264 17.146 10.7171 17.3082 10.4984 17.3082ZM10.9358 15.6856L11.0452 15.5774L10.9358 15.307H10.6624L10.553 15.6315L10.6624 15.6856H10.3343V15.6315L10.4437 15.5774L10.8264 14.4956H10.8811L11.2639 15.5774L11.3732 15.6315V15.6856H10.9358ZM12.0841 16.1724L11.9747 16.2265V16.8755C11.9747 17.2 11.8107 17.3082 11.5919 17.3082C11.4279 17.3082 11.1545 17.2541 11.1545 16.9296V16.2265L11.0452 16.1724V16.1183H11.4826V16.1724L11.3732 16.2265V16.8755C11.3732 17.0919 11.4826 17.2 11.5919 17.2C11.756 17.2 11.8653 17.0919 11.8653 16.8214V16.2265L11.756 16.1724V16.1183L12.0841 16.1724ZM11.92 15.7397C11.8107 15.7397 11.7013 15.6856 11.6466 15.6856V15.4151H11.7013C11.7013 15.5774 11.8107 15.7397 11.9747 15.7397C12.0841 15.7397 12.1387 15.6856 12.1387 15.5774C12.1387 15.2529 11.6466 15.361 11.6466 14.9283C11.6466 14.712 11.8107 14.6038 11.9747 14.6038C12.0841 14.6038 12.1387 14.6579 12.2481 14.6579V14.9283H12.1934C12.1934 14.7661 12.0841 14.6579 11.9747 14.6579C11.92 14.6579 11.8107 14.712 11.8107 14.8202C11.8107 15.0906 12.3028 15.0365 12.3028 15.4692C12.2481 15.5774 12.1387 15.7397 11.92 15.7397ZM12.7402 16.7673C12.8496 16.7133 12.9043 16.6051 12.9043 16.4428C12.9043 16.2805 12.8496 16.2265 12.7402 16.2265C12.6855 16.2265 12.6855 16.2265 12.6309 16.2265V17.2L12.7402 17.2541V17.3082H12.3028V17.2541L12.4121 17.2V16.2265L12.3028 16.1724V16.1183H12.6855C12.9043 16.1183 13.0683 16.1724 13.0683 16.3887C13.123 16.6592 12.9043 16.7673 12.7402 16.7673ZM14.0525 17.2541H13.287V17.2L13.3964 17.146V16.2265L13.287 16.1724V16.1183H13.9979V16.4428H13.9432L13.8338 16.2265H13.5604V16.6592H13.7245L13.7791 16.4969H13.8338V16.9296H13.7791L13.7245 16.7673H13.5604V17.2541H13.8885L13.9979 16.9837H14.0525V17.2541ZM13.6151 15.6856L13.7245 15.5774V14.6038H13.6151V14.5497H14.3259V14.8743H14.2712V14.6038H13.9979V15.0365H14.1619L14.2166 14.8743V15.307H14.1619L14.1072 15.1447H13.9432V15.6315H14.2712L14.3806 15.361H14.4353V15.6856H13.6151ZM15.2555 17.2541C15.2555 17.2541 15.1461 17.2541 15.0914 17.2541C15.0368 17.2541 14.9821 17.2 14.9274 17.146L14.7634 16.8214C14.7087 16.7673 14.7087 16.7133 14.654 16.7133V17.146L14.7634 17.2V17.2541H14.3259V17.2L14.4353 17.146V16.2265L14.3259 16.1724V16.1183H14.7634C14.9821 16.1183 15.1461 16.1724 15.1461 16.3887C15.1461 16.551 15.0368 16.6592 14.818 16.7133C14.9274 16.7133 14.9821 16.7673 15.0368 16.8755L15.2008 17.146C15.1461 17.2 15.2008 17.2 15.2555 17.2541ZM15.9116 16.1724L15.8023 16.2265V17.2L15.9116 17.2541V17.3082H15.4742V17.2541L15.5836 17.2V16.2265L15.4742 16.1724V16.1183L15.9116 16.1724ZM17.1146 16.1724L17.0052 16.2265V16.8755C17.0052 17.2 16.8412 17.3082 16.6225 17.3082C16.4584 17.3082 16.185 17.2541 16.185 16.9296V16.2265L16.0757 16.1724V16.1183H16.5131V16.1724L16.4584 16.2265V16.8755C16.4584 17.0919 16.5678 17.2 16.6772 17.2C16.8412 17.2 16.9506 17.0919 16.9506 16.8214V16.2265L16.8412 16.1724V16.1183L17.1146 16.1724ZM17.1146 15.6856L17.2239 15.5774V14.6038H17.1146V14.5497H17.8254V14.8743H17.7707L17.7161 14.6038H17.4427V15.0365H17.6067L17.6614 14.8743H17.7161V15.307H17.6614L17.6067 15.1447H17.4427V15.6315H17.7707L17.8801 15.361H17.9348V15.6856H17.1146ZM17.6614 17.3082C17.552 17.3082 17.4427 17.2541 17.388 17.2541V16.9837H17.4427C17.4427 17.146 17.552 17.3082 17.7161 17.3082C17.8254 17.3082 17.8801 17.2541 17.8801 17.146C17.8801 16.8214 17.388 16.9296 17.388 16.4969C17.388 16.2805 17.552 16.1724 17.7161 16.1724C17.8254 16.1724 17.8801 16.2265 17.9895 16.2265V16.4969H17.9348C17.9348 16.3346 17.8254 16.2265 17.7161 16.2265C17.6614 16.2265 17.552 16.2805 17.552 16.3887C17.552 16.6592 18.0441 16.6051 18.0441 17.0378C17.9895 17.146 17.8801 17.3082 17.6614 17.3082Z" fill="white"/>
<path d="M10.6626 15.1988H10.936L10.8266 14.8743L10.6626 15.1988Z" fill="white"/>
<path d="M16.6772 15.0906C16.6772 14.8201 16.6225 14.6038 16.2944 14.6038H16.1851V15.6314H16.2944C16.5678 15.6314 16.6772 15.4151 16.6772 15.0906Z" fill="white"/>
</g>
<defs>
<clipPath id="clip0_105_868">
<rect width="163" height="43" fill="white"/>
</clipPath>
</defs>
</svg>
