<svg width="299" height="81" viewBox="0 0 299 81" fill="none" xmlns="http://www.w3.org/2000/svg">
<g clip-path="url(#clip0_7_468)">
<path d="M26.4 0.800003C11.2 0.800003 0.800018 11.5 0.600018 27.5C0.300018 57.1 24.3 78 26.6 79.9C28.1 78.7 36.8 70.6 43.5 58.4L43.6 58.2C49.1 48.1 51.9 37.7 52 27.4C52.1 19.3 49.6 12.6 44.9 7.9C40.4 3.3 34 0.800003 26.6 0.800003H26.4Z" fill="white"/>
<path d="M26.4 0.8C11.3 0.8 1.00002 11.4 0.800021 27.3C0.400021 56.8 24.3 77.6 26.6 79.4C28.1 78.2 36.7 70.2 43.4 58L43.5 57.8C49 47.7 51.8 37.5 51.9 27.2C52 19.2 49.5 12.5 44.9 7.8C40.4 3.2 34 0.8 26.6 0.7H26.4V0.8ZM26.6 80.3C26.2 80.3 23 77.2 21.9 76.2C15.2 69.4 -0.299979 51.1 2.09776e-05 27.3C0.200021 10.9 10.8 0 26.4 0H26.6C34.1 0 40.8 2.6 45.4 7.3C50.2 12.2 52.7 19.1 52.7 27.3C52.6 37.6 49.8 48 44.4 58.1L44.2 58.3C36.8 71.9 27.1 80.3 26.6 80.3Z" fill="#BE850F"/>
<path d="M6.49998 19.7L9.09998 20.4C10.3 20.7 10.7 21.6 10.5 22.4C10.3 23.2 9.79998 24 8.39998 23.6L5.59998 22.9L5.29998 23.4L5.09998 23.3L5.59998 21.5L5.79998 21.6V22.2L8.59998 22.9C9.39998 23.1 9.99998 22.8 10.2 22.2C10.3 21.6 9.99998 21 8.99998 20.7L6.39998 20L6.09998 20.5L5.89998 20.4L6.29998 19L6.49998 19.1V19.7Z" fill="#252E62"/>
<path d="M13.1 16.2L8.19998 16.7L11.4 18.4L11.8 18L12 18.1L11.3 19.4L11.1 19.3L11.2 18.7L7.69998 16.7L7.29998 17.1L7.09998 17L7.69998 15.9L11.7 15.5L9.09998 14.1L8.69998 14.5L8.49998 14.4L9.19998 13.2L9.39998 13.3L9.19998 13.8L13.2 16L13.1 16.2Z" fill="#252E62"/>
<path d="M14.8 13.6L15.3 13.3L15.4 13.4L14.2 14.8L14 14.6L14.3 14.1L11.2 11.3L10.8 11.6L10.6 11.5L11.9 10.1L12 10.3L11.8 10.8L14.8 13.6Z" fill="#252E62"/>
<path d="M14.1 8.6L13.6 8.7L13.5 8.5L15.1 7.5L15.2 7.7L14.8 8.2L17.5 10.4L16.7 7L16.1 7.1L16 6.9L17.2 6.2L17.3 6.4L17 6.8L18.1 11.5L17.9 11.6L14.1 8.6Z" fill="#252E62"/>
<path d="M20.6 9.8L21.1 9.5L20 5.5H19.5L19.4 5.3L22.5 4.5L22.8 5.7L22.6 5.8L22.1 4.9L20.7 5.3L21.2 7L22 6.8V6.1L22.2 6L22.6 7.7L22.5 7.8L22.1 7.1L21.3 7.3L21.8 9.4L23.2 9L23.3 7.8L23.5 7.7L23.8 9.1L20.7 10L20.6 9.8Z" fill="#252E62"/>
<path d="M26.4 6.40001H26.8C27.4 6.40001 27.7 6.00001 27.8 5.30001C27.8 4.70001 27.5 4.30001 27 4.30001C26.8 4.30001 26.7 4.30001 26.6 4.30001L26.4 6.40001ZM25.7 4.50001L25.2 4.30001V4.10001H26.9C27.9 4.10001 28.5 4.40001 28.5 5.30001C28.5 6.00001 28.1 6.50001 27.1 6.60001C27.4 6.70001 27.7 6.80001 28 7.30001L28.6 8.50001C28.7 8.70001 28.8 8.80001 29.1 8.80001L29 9.00001C28.9 9.00001 28.6 9.10001 28.3 9.10001C28 9.10001 27.9 9.00001 27.7 8.60001L27 7.10001C26.9 6.90001 26.8 6.70001 26.5 6.70001H26.4V8.60001L27 8.80001V9.00001H25.1V8.80001L25.6 8.60001L25.7 4.50001Z" fill="#252E62"/>
<path d="M31.1 9.60001C30.7 9.50001 30.3 9.30001 30 9.00001L30.2 7.80001L30.4 7.90001C30.3 8.70001 30.4 9.20001 31.1 9.40001C31.5 9.50001 32 9.30001 32.1 8.90001C32.4 7.60001 30.3 7.40001 30.7 5.80001C30.9 4.90001 31.6 4.60001 32.4 4.80001C32.8 4.90001 33.2 5.10001 33.4 5.30001L33.1 6.40001L33 6.20001C33.1 5.60001 32.9 5.10001 32.4 4.90001C32 4.90001 31.6 5.00001 31.5 5.50001C31.2 6.80001 33.3 7.00001 32.8 8.60001C32.6 9.40001 31.9 9.90001 31.1 9.60001Z" fill="#252E62"/>
<path d="M34.9 10.6L35.4 11L35.3 11.2L33.6 10.3L33.7 10.1L34.3 10.2L36.1 6.6L35.7 6.2L35.8 6L37.5 6.8L37.4 7L36.8 6.9L34.9 10.6Z" fill="#252E62"/>
<path d="M40.7 9.6L40.3 9.2L37.4 12.3L37.8 12.7C38.5 13.4 39.5 13.2 40.5 12.2C41.2 11.4 41.6 10.4 40.7 9.6ZM36.4 11.5L36.9 11.7L39.7 8.7L39.4 8.2L39.6 8L41 9.4C42.1 10.4 42.2 11.5 41.1 12.6C40 13.9 38.8 14 37.7 13L36.3 11.7L36.4 11.5Z" fill="#252E62"/>
<path d="M42.3 15.3L42.9 16.3L44 15L42.3 15.3ZM42.6 16.5L41.9 15.4L40.5 15.7L40.6 16.3L40.4 16.4L39.7 15.2L40 15L40.4 15.4L45.2 14.5L45.3 14.7L42.1 18.3L42.2 18.8L42 18.9L41 17.3L41.2 17.2L41.6 17.6L42.6 16.5Z" fill="#252E62"/>
<path d="M47.3 20.5L47.1 19.9L43 21L43.2 21.6C43.5 22.6 44.4 23 45.7 22.6C46.7 22.3 47.6 21.7 47.3 20.5ZM42.6 19.8L42.9 20.3L46.9 19.2V18.6L47.1 18.5L47.6 20.4C48 21.8 47.4 22.8 46 23.2C44.4 23.6 43.3 23 42.9 21.6L42.4 19.7L42.6 19.8Z" fill="#252E62"/>
<path d="M38.8 61L39 61.1L37.9 62.6L37.7 62.5L37.9 62L34.9 59.9L37.5 63.4L37.3 63.6L33.1 62.5L36.1 64.6L36.5 64.2L36.7 64.4L35.9 65.5L35.7 65.4L35.9 64.9L32.6 62.6L32.1 62.9L31.9 62.8L32.7 61.7L36.5 62.6L34.2 59.5L35 58.4L35.2 58.5L35 59L38.3 61.3L38.8 61Z" fill="#252E62"/>
<path d="M40.3 58.2L40.7 57.8L40.9 57.9L39.9 59.5L39.7 59.4L39.9 58.8L36.4 56.8L36 57.2L35.8 57.1L36.7 55.5L36.9 55.6L36.8 56.1L40.3 58.2Z" fill="#252E62"/>
<path d="M42.4 55.3C42.2 55.7 41.9 56 41.5 56.2L40.4 55.7L40.5 55.5C41.2 55.7 41.8 55.7 42.1 55.1C42.3 54.7 42.3 54.2 41.8 54C40.6 53.4 39.9 55.4 38.5 54.7C37.7 54.3 37.5 53.5 37.9 52.8C38.1 52.5 38.4 52.1 38.6 51.9L39.6 52.4L39.5 52.6C38.9 52.4 38.4 52.5 38.1 53C37.9 53.3 38 53.7 38.4 53.9C39.6 54.5 40.3 52.5 41.7 53.2C42.6 53.7 42.9 54.5 42.4 55.3Z" fill="#252E62"/>
<path d="M44 51.3L44.1 50.7L40.3 49.1L39.9 50L40.7 50.7L40.6 50.9L39.4 50.3L40.9 46.9L42.1 47.4L42 47.6L41 47.5L40.6 48.4L44.3 50L44.7 49.5L44.9 49.6L44.2 51.4L44 51.3Z" fill="#252E62"/>
<path d="M44 44.9L44.1 44.5C44.3 43.9 44 43.5 43.4 43.3C42.8 43.1 42.4 43.3 42.2 43.8C42.2 44 42.1 44.1 42.1 44.2L44 44.9ZM41.9 45.1L41.6 45.6L41.4 45.5L41.9 43.8C42.2 42.9 42.6 42.3 43.5 42.6C44.2 42.8 44.5 43.4 44.3 44.3C44.5 44 44.7 43.8 45.2 43.7L46.5 43.5C46.7 43.5 46.8 43.3 47 43.1L47.2 43.2C47.2 43.3 47.2 43.6 47.1 43.9C47 44.2 46.8 44.3 46.5 44.4L44.7 44.7C44.4 44.7 44.3 44.8 44.2 45.1V45.2L46 45.8L46.3 45.3L46.5 45.4L46 47L45.8 46.9V46.3L41.9 45.1Z" fill="#252E62"/>
<path d="M46 39.8L46.2 38.7L44.5 38.9L46 39.8ZM46.5 38.6L46.2 39.9L47.4 40.6L47.7 40.1H47.9L47.6 41.5H47.4V41L43.3 38.4V38.2L48.1 37.6L48.4 37.1H48.6L48.2 39H48V38.4L46.5 38.6Z" fill="#252E62"/>
<path d="M48.7 34L48.8 32.6L47.7 32.1V31.9L49.2 32.1L48.8 35.4L48.6 35.3L48.5 34.8L44.5 34.3L44.3 34.9L44.1 34.8L44.2 33H44.5L44.6 33.6L48.7 34Z" fill="#252E62"/>
<path d="M5.4 32.3L5.5 31.7H5.7L5.8 33.6H5.6L5.4 33.1L3.9 33.2C3.7 32.9 3.5 32.3 3.4 31.8C3.3 30.4 3.9 29.4 5.7 29.3C7.5 29.2 8.3 30.1 8.4 31.4C8.4 31.9 8.3 32.6 8.2 32.9L7.1 33V32.8C7.8 32.5 8.2 32.1 8.2 31.4C8.1 30.5 7.1 30 5.9 30.1C4.6 30.2 3.7 30.7 3.7 31.8C3.7 32.1 3.8 32.4 3.9 32.5L5.4 32.3Z" fill="#252E62"/>
<path d="M6.1 36.4L6.3 37.5L7.7 36.7L6.1 36.4ZM6 37.7L5.8 36.4L4.5 36.2V36.8H4.3L4 35.4H4.2L4.5 35.9L9.2 36.7V36.9L5 39.1L4.9 39.6H4.7L4.3 37.7H4.5L4.8 38.2L6 37.7Z" fill="#252E62"/>
<path d="M8.19999 42.4C8.39999 42.9 8.79999 43.1 9.39999 42.9C9.89999 42.8 10.2 42.4 9.99999 41.9C9.99999 41.7 9.89999 41.5 9.79999 41.5L8.09999 42L8.19999 42.4ZM7.89999 42.5L7.79999 42.2L5.89999 42.8C5.89999 42.9 5.89999 43.1 5.99999 43.2C6.19999 43.9 6.79999 44 7.29999 43.9C7.79999 43.6 8.09999 43.1 7.89999 42.5ZM5.39999 41.5L5.69999 42L9.49999 40.8V40.2L9.69999 40.1L10.2 41.9C10.4 42.6 10.5 43.3 9.59999 43.6C8.79999 43.8 8.49999 43.5 8.19999 42.9C8.39999 43.6 8.19999 44.3 7.49999 44.5C6.59999 44.8 6.09999 44.3 5.79999 43.3L5.29999 41.5H5.39999Z" fill="#252E62"/>
<path d="M9.69999 47L9.79999 47.4C9.99999 48 10.5 48.1 11.1 47.9C11.6 47.7 11.9 47.3 11.6 46.7C11.5 46.5 11.4 46.4 11.4 46.3L9.69999 47ZM11.1 45.6V45L11.3 44.9L12 46.5C12.4 47.4 12.4 48.1 11.5 48.5C10.9 48.8 10.2 48.6 9.79999 47.7C9.89999 48 9.79999 48.4 9.49999 48.8L8.69999 49.8C8.59999 50 8.49999 50.1 8.59999 50.4L8.39999 50.5C8.29999 50.4 8.09999 50.1 7.99999 49.9C7.89999 49.6 7.99999 49.4 8.19999 49.2L9.29999 47.9C9.49999 47.7 9.49999 47.5 9.39999 47.3L9.29999 47.2L7.59999 47.9L7.69999 48.5L7.49999 48.6L6.79999 46.9L6.99999 46.8L7.39999 47.3L11.1 45.6Z" fill="#252E62"/>
<path d="M10.1 53L10.2 53.5L9.99998 53.6L9.09998 52L9.29998 51.9L9.69998 52.3L13.3 50.5L13.2 49.9L13.4 49.8L14.2 51.5L14 51.6L13.6 51.2L10.1 53Z" fill="#252E62"/>
<path d="M11 55.1L11.4 55.5L14.9 53.5L14.7 52.9L14.9 52.8L16.5 55.6L15.4 56.2L15.3 56.1L16 55.3L15.3 54.1L13.7 55L14.2 55.7L14.9 55.5L15 55.7L13.5 56.5L13.4 56.4L13.9 55.9L13.5 55.2L11.7 56.2L12.5 57.4L13.6 57.2L13.7 57.3L12.5 58L10.8 55.2L11 55.1Z" fill="#252E62"/>
<path d="M14.5 60.6L15.3 61.8L16.5 61.4L16.6 61.6L15.4 62.4L13.5 59.7L13.7 59.5L14.1 59.9L17.4 57.6L17.2 57.1L17.4 57L18.5 58.5L18.3 58.6L17.8 58.3L14.5 60.6Z" fill="#252E62"/>
<path d="M18.8 63.7L19.5 64.6L20.4 63.2L18.8 63.7ZM19.4 64.8L18.6 63.7L17.3 64.1L17.5 64.6L17.3 64.7L16.4 63.6L16.6 63.5L17.1 63.8L21.6 62.3L21.7 62.5L19.2 66.5L19.4 67L19.2 67.1L18 65.8L18.2 65.7L18.7 66L19.4 64.8Z" fill="#252E62"/>
<path d="M10.8 29.8C10.7 17.8 18.2 11.4 26.8 11.5C35.5 11.5 42 17.8 42 29.8C41.9 48.8 27 65.8 26.9 65.8C26.6 65.8 10.8 48.8 10.8 29.8Z" fill="#252E62"/>
<path d="M29 54.3C28.7 54.2 28.1 53.9 28.1 53.9C28.1 53.9 26.7 53.2 26.7 52.4V52.2C26.6 52.2 26.4 52.3 26.2 52.3C26 52.3 25.8 52.3 25.7 52.2V52.4C25.7 53.2 24.3 53.9 24.3 53.9C24.3 53.9 23.7 54.2 23.4 54.3C22.9 54.5 22.2 54.6 22.3 54.7C22.3 54.8 23.1 54.7 23.8 54.5C24.6 54.3 25.4 53.8 25.4 53.9C25.5 54 24.8 54.6 24.2 55C23.8 55.3 23.4 55.5 23.5 55.6C23.5 55.7 23.9 55.7 24.3 55.6C24.6 55.5 24.8 55.2 24.9 55.2C25 55.2 25.1 56 25.3 56C25.4 56 25.5 53.9 26.4 53.8C27.2 53.9 27.3 56 27.5 56C27.6 56 27.7 55.2 27.9 55.2C28 55.2 28.2 55.5 28.5 55.6C28.9 55.7 29.3 55.7 29.3 55.6C29.3 55.6 28.9 55.3 28.6 55C28 54.5 27.3 54 27.4 53.9C27.4 53.8 28.2 54.3 29 54.5C29.7 54.7 30.5 54.8 30.5 54.7C30.2 54.6 29.5 54.5 29 54.3Z" fill="#BE850F"/>
<path d="M22.5 48.8C22.4 49.3 22.9 49.5 23.1 49.6C23.3 49.3 23.4 48.7 23.3 48.3C23.1 48.2 22.5 48.2 22.5 48.8Z" fill="#BE850F"/>
<path d="M23.3 46.6L22.3 46.9C22.2 46.9 22.2 46.9 22.2 46.8C22.2 46.7 22.2 46.7 22.3 46.7C22.3 46.7 23.2 46.5 23.3 46.5C23.4 46.5 23.4 46.4 23.3 46.4C23.3 46.4 22.7 45.5 22.6 45.5C22.6 45.5 22.5 45.4 22.5 45.5C22.4 45.5 21.5 45.9 21.5 45.9C21.4 45.9 21.4 45.9 21.4 45.8C21.4 45.7 21.4 45.7 21.5 45.7C21.5 45.7 22.3 45.5 22.4 45.4C22.5 45.4 22.5 45.3 22.4 45.3C22.4 45.2 21.9 44.6 21.9 44.6C21.9 44.6 21.8 44.5 21.7 44.5C21.6 44.5 20.7 44.9 20.7 44.9C20.6 44.9 20.6 44.9 20.6 44.8C20.6 44.7 20.6 44.7 20.7 44.7C20.7 44.7 21.6 44.5 21.6 44.4C21.7 44.4 21.7 44.3 21.6 44.3L20.8 43.4V43.3H20.9C20.9 43.3 21.5 44.1 21.6 44.2C21.7 44.3 21.7 44.2 21.7 44.2L22.2 43.4C22.2 43.3 22.3 43.3 22.3 43.4C22.3 43.4 22.4 43.5 22.3 43.5C22.3 43.5 21.7 44.3 21.7 44.4C21.7 44.4 21.7 44.5 21.7 44.6C21.7 44.7 22.2 45.2 22.3 45.3H22.4C22.4 45.2 22.9 44.5 22.9 44.5C22.9 44.5 23 44.4 23 44.5C23 44.5 23.1 44.6 23 44.6L22.4 45.5C22.4 45.5 22.3 45.6 22.4 45.7C22.4 45.8 22.9 46.3 22.9 46.4H23C23 46.3 23.6 45.7 23.6 45.7C23.6 45.7 23.7 45.6 23.7 45.7C23.7 45.7 23.8 45.8 23.7 45.8C23.7 45.8 23.1 46.5 23 46.5C23 46.6 22.9 46.6 23 46.7C23 46.8 23.3 47.1 23.3 47.1V47.2H23.2C23.2 47.2 23.1 47.1 23.1 47C23.5 46.6 23.4 46.6 23.3 46.6ZM24.4 47.9C24.4 47.9 24.9 48.4 25.1 48.9C25.1 48.9 25.1 49 25 49C24.9 49 24.5 48.9 24.5 48.9C24.4 48.8 24.3 48.3 23.6 48.2C23.5 48.2 23.5 48.3 23.4 48.3C23.5 48.7 23.4 49.3 23.2 49.6C23.2 49.7 23.3 49.7 23.4 49.7C24 49.7 24.2 49.5 24.4 49.3C24.5 49.2 25.2 49.2 25.5 49.6C25.5 49.6 25.7 49.9 25.8 50.2C25.9 50.2 26 50.2 26.2 50.2C26.1 49.8 25.4 48.8 25.4 48.8C25 48.3 24.7 47.7 24.7 47.7C24.4 47.2 24.5 46.7 24.5 46.7L24.8 45.4C24.8 45.4 25 44.7 24.7 44.6C24.5 44.5 24.2 44.9 24.2 44.9C24.2 44.9 24.1 45 24 44.9C23.8 44.8 24.1 44.1 24.2 44C24.2 43.9 24.5 43.2 24.1 43.1C23.7 43 23.6 43.5 23.5 43.6C23.3 43.8 23 43.7 23.1 43.4C23.1 43.3 23.2 43 23.2 42.7C23.2 42 22.6 42.2 22.5 42.4C22.3 42.7 22.1 42.6 22.1 42.5C21.7 42 20.9 42.3 20.5 42.6C20.1 42.9 19.6 43.5 20 44.1C20 44.2 20.1 44.4 19.8 44.5C19.5 44.6 19.3 45.1 19.9 45.3C20.2 45.4 20.6 45.3 20.6 45.3C20.8 45.3 20.9 45.6 20.7 45.7C20.6 45.8 20 45.7 20.1 46.2C20.1 46.6 20.9 46.5 21 46.5C21.1 46.5 21.8 46.3 21.9 46.5C21.9 46.6 21.8 46.7 21.8 46.7C21.7 46.8 21.4 46.9 21.4 47.2C21.4 47.5 22.1 47.5 22.1 47.5H23.4C23.4 47.5 23.9 47.5 24.4 47.9Z" fill="#BE850F"/>
<path d="M26.9 52C26.9 51.9 26.9 51.9 26.8 51.8C26.9 51.7 26.9 51.7 26.9 51.6C26.9 51.5 26.9 51.5 26.8 51.4C26.9 51.3 26.9 51.3 26.9 51.2C26.9 51.1 26.9 51.1 26.8 51C26.8 51 26.9 50.9 26.9 50.8C26.9 50.7 26.9 50.7 26.8 50.6L26.9 50.5C26.9 50.3 26.6 50.2 26.2 50.2C25.8 50.2 25.5 50.3 25.5 50.5C25.5 50.6 25.5 50.6 25.6 50.6H25.8C25.8 50.6 25.7 50.6 25.6 50.6C25.6 50.6 25.5 50.7 25.5 50.8C25.5 50.9 25.5 50.9 25.6 51C25.5 51 25.5 51.1 25.5 51.2C25.5 51.3 25.5 51.3 25.6 51.4C25.5 51.5 25.5 51.5 25.5 51.6C25.5 51.7 25.5 51.7 25.6 51.8C25.5 51.9 25.5 51.9 25.5 52C25.5 52.2 25.8 52.3 26.2 52.3C26.6 52.2 26.9 52.1 26.9 52Z" fill="white"/>
<path d="M29.3 43.5C29.3 43.4 29.3 43.4 29.3 43.5C29.4 43.5 29.5 43.5 29.4 43.5L28.5 45.8H28.4L29.3 43.5ZM29.5 45.9L31.7 43.5C31.7 43.5 31.8 43.4 31.8 43.5V43.6C31.9 43.7 29.7 46 29.5 45.9C29.6 46 29.5 46 29.5 45.9ZM30.3 46.4L32.6 45.3H32.7V45.4C32.7 45.4 30.4 46.4 30.3 46.4ZM29.7 47C32.4 46.8 33.1 45.3 33.1 45.3C31.6 45 30.6 46 29.9 46.5C29.2 47 28.4 47.2 28.4 47.2C28.7 46.8 29.1 46.5 29.3 46.5C32.4 45.2 32.6 42.8 32.6 42.9C29.9 43.8 29.8 45.4 29 46.3C28.6 46.8 28.2 47.4 28.1 47.3C28 47.2 28.2 46.4 28.4 46.2C29.7 45 29.4 42.9 29.4 43C27.9 44.3 28.1 45.6 27.8 47.4C27.7 48.1 27.1 48.4 26.1 50.4C26.2 50.4 26.4 50.4 26.5 50.4C26.6 50.2 26.8 49.8 26.9 49.6C27.1 49.3 27.9 49.2 28 49.3C28.1 49.4 28.4 49.8 29.1 49.8C29.7 49.8 30.1 49.4 30.1 48.9C30.1 48.5 29.6 48.1 29 48.2C28.4 48.2 28.2 48.7 28 48.9C27.8 49.1 27.4 49.1 27.3 49C27.3 48.7 28.5 47.1 29.7 47Z" fill="#BE850F"/>
<path d="M31.9 23C31.7 23 31.5 23 31.3 23C31.2 23 31.2 23 31.1 23H31H30.9H30.8C30.8 23 30.8 23 30.7 23C30.3 22.9 29.9 22.9 29.6 22.9C27.8 22.9 26.9 23.6 26.6 23.9C26.5 23.9 26.4 26.4 26.4 26.4L26.2 23.9C26 23.7 25 22.9 23.2 22.9C22.8 22.9 22.5 22.9 22.1 23C22 23 21.5 23.1 20.9 23.1C20 23.1 18.7 23 17.7 22.6V34.6C18.1 34.8 19.8 35.6 21.7 35.3C21.8 35.3 24.1 35 26.4 35.9L26.6 33.4L26.8 35.9C29.1 35 31.4 35.3 31.5 35.3C33.4 35.6 35.1 34.8 35.5 34.6V22.6C34.1 22.9 32.8 23 31.9 23Z" fill="white"/>
<path d="M35.4 34.7C35.3 34.8 33.3 35.8 31.1 35.5C31.1 35.5 28.7 35.1 26.3 36.1H26.2C23.9 35.1 21.5 35.5 21.4 35.5C19.2 35.8 17.3 34.8 17.2 34.7H17.1V22.7L15.9 23.7V35.4C16.1 35.6 17.2 36.4 19.5 36.4C19.8 36.4 20.2 36.4 20.5 36.3C20.5 36.3 21.7 36.1 22.9 36.1C23.9 36.1 24.6 36.2 25 36.4H25.1V36.5C25.1 36.5 25.1 36.5 25.1 36.6C25.1 37.1 25.6 37.5 26.1 37.5C26.7 37.5 27.1 37.1 27.1 36.6V36.5V36.4H27.2C27.6 36.2 28.3 36 29.3 36C30.5 36 31.7 36.2 31.7 36.2C32 36.2 32.4 36.3 32.7 36.3C35 36.3 36.1 35.4 36.3 35.3V23.6L35.1 22.6V34.7H35.4Z" fill="white"/>
<path d="M20.3 28L20.5 28.7H20.1L20.3 28ZM20.4 27.3L19.7 29.3L19.5 29.4V29.5H20.1V29.4L19.9 29.3L20.1 28.7H20.6L20.8 29.3L20.6 29.4V29.5H21.4V29.4L21.2 29.3L20.4 27.3Z" fill="#BE850F"/>
<path d="M22.8 27.9C22.8 27.6 22.6 27.4 22.4 27.4C22.3 27.4 22.1 27.5 22.1 27.7C22.1 28.2 23 28.1 23 28.8C23 29.2 22.8 29.4 22.4 29.4C22.2 29.4 22 29.3 21.9 29.3V28.8H22C22 29.1 22.2 29.4 22.4 29.4C22.6 29.4 22.7 29.3 22.7 29.1C22.7 28.5 21.8 28.7 21.8 28C21.8 27.6 22.1 27.4 22.4 27.4C22.6 27.4 22.7 27.5 22.9 27.5L22.8 27.9Z" fill="#BE850F"/>
<path d="M25 29.4C24.9 29.5 24.7 29.6 24.4 29.6C23.8 29.6 23.4 29.3 23.4 28.5C23.4 27.7 23.8 27.4 24.3 27.4C24.5 27.4 24.8 27.5 24.9 27.5V28H24.8C24.7 27.6 24.5 27.5 24.3 27.5C23.9 27.5 23.7 27.9 23.7 28.5C23.7 29.1 23.9 29.5 24.3 29.5C24.5 29.5 24.7 29.3 24.8 29H25V29.4Z" fill="#BE850F"/>
<path d="M25.5 27.4V27.5L25.7 27.6V29.3L25.5 29.4V29.5H26.8L26.9 28.9H26.8L26.6 29.4H26.1V28.5H26.4L26.5 28.8V28L26.4 28.3H26.1V27.5H26.6L26.7 28H26.8V27.4H25.5Z" fill="#BE850F"/>
<path d="M28.6 27.4V27.5L28.8 27.6V28.8L27.9 27.4H27.3V27.5L27.5 27.6V29.3L27.3 29.4V29.5H27.9V29.4L27.7 29.3V27.7L28.8 29.5H28.9V27.6L29.1 27.5V27.4H28.6Z" fill="#BE850F"/>
<path d="M30.1 29.4H30.3C30.7 29.4 31 29.1 31 28.5C31 28 30.9 27.6 30.4 27.6H30.2V29.4H30.1ZM29.5 29.4L29.7 29.3V27.5L29.5 27.4V27.3H30.4C31 27.3 31.4 27.6 31.4 28.3C31.4 29 31 29.4 30.4 29.4H29.5Z" fill="#BE850F"/>
<path d="M31.7 27.4V27.5L32 27.6V29.3L31.7 29.4V29.5H33.1V28.9H33L32.9 29.4H32.3V28.5H32.6L32.7 28.8H32.8V28H32.7L32.6 28.3H32.3V27.5H32.9L33 28H33.1V27.4H31.7Z" fill="#BE850F"/>
<path d="M20.2 30.8C20.2 30.5 20 30.3 19.8 30.3C19.7 30.3 19.5 30.4 19.5 30.6C19.5 31.1 20.4 31 20.4 31.7C20.4 32.1 20.2 32.3 19.8 32.3C19.6 32.3 19.4 32.2 19.3 32.2V31.7H19.4C19.4 32 19.6 32.3 19.9 32.3C20.1 32.3 20.2 32.2 20.2 32C20.2 31.4 19.3 31.6 19.3 30.9C19.3 30.5 19.6 30.3 19.9 30.3C20.1 30.3 20.2 30.4 20.4 30.4L20.2 30.8Z" fill="#BE850F"/>
<path d="M22.5 30.5V31.7C22.5 32.3 22.2 32.5 21.8 32.5C21.5 32.5 21.1 32.4 21.1 31.8V30.5L20.9 30.4V30.3H21.7V30.4L21.5 30.5V31.7C21.5 32.1 21.7 32.3 21.9 32.3C22.2 32.3 22.4 32.1 22.4 31.6V30.4L22.2 30.3V30.2H22.8V30.3L22.5 30.5Z" fill="#BE850F"/>
<path d="M23.3 30.5L23.1 30.4V30.3H23.8C24.2 30.3 24.5 30.4 24.5 30.8C24.5 31.2 24.2 31.4 23.8 31.4H23.7V31.3C24 31.3 24.1 31.1 24.1 30.8C24.1 30.5 24 30.4 23.8 30.4C23.7 30.4 23.7 30.4 23.6 30.4V32.2L23.8 32.3V32.4H23V32.3L23.2 32.2V30.5H23.3Z" fill="#BE850F"/>
<path d="M24.9 30.3V30.4L25.1 30.5V32.2L24.9 32.3V32.4H26.2L26.3 31.8H26.2L26 32.3H25.5V31.4H25.8L25.9 31.7V30.9L25.8 31.2H25.5V30.4H26L26.2 30.9V30.3H24.9Z" fill="#BE850F"/>
<path d="M27.3 31.3H27.4C27.7 31.3 27.8 31.1 27.8 30.8C27.8 30.5 27.7 30.4 27.5 30.4C27.4 30.4 27.4 30.4 27.3 30.4V31.3ZM26.9 30.5L26.7 30.4V30.3H27.4C27.8 30.3 28.1 30.4 28.1 30.8C28.1 31.1 27.9 31.3 27.5 31.4C27.7 31.4 27.8 31.5 27.9 31.7L28.1 32.2C28.1 32.3 28.2 32.3 28.3 32.3V32.4C28.3 32.4 28.1 32.4 28 32.4C27.9 32.4 27.8 32.3 27.7 32.2L27.4 31.5C27.3 31.4 27.3 31.3 27.2 31.3V32.1L27.4 32.2V32.3H26.6V32.2L26.8 32.1V30.5H26.9Z" fill="#BE850F"/>
<path d="M28.8 30.3V30.4L29 30.5V32.2L28.8 32.3V32.4H29.6V32.3L29.3 32.2V30.5L29.6 30.4V30.3H28.8Z" fill="#BE850F"/>
<path d="M31.6 30.5V31.7C31.6 32.3 31.3 32.5 30.9 32.5C30.6 32.5 30.2 32.4 30.2 31.8V30.5L30 30.4V30.3H30.8V30.4L30.6 30.5V31.7C30.6 32.1 30.8 32.3 31 32.3C31.3 32.3 31.5 32.1 31.5 31.6V30.4L31.3 30.3V30.2H31.9V30.3L31.6 30.5Z" fill="#BE850F"/>
<path d="M33.2 30.8C33.2 30.5 33 30.3 32.8 30.3C32.7 30.3 32.5 30.4 32.5 30.6C32.5 31.1 33.4 31 33.4 31.7C33.4 32.1 33.2 32.3 32.8 32.3C32.6 32.3 32.4 32.2 32.3 32.2V31.7H32.4C32.4 32 32.6 32.3 32.9 32.3C33.1 32.3 33.2 32.2 33.2 32C33.2 31.4 32.3 31.6 32.3 30.9C32.3 30.5 32.6 30.3 32.9 30.3C33.1 30.3 33.2 30.4 33.4 30.4L33.2 30.8Z" fill="#BE850F"/>
<path d="M60.5 21.3V15.8H62.2V21.2C62.2 23 63.1 23.9 64.6 23.9C66.1 23.9 67 23 67 21.2V15.7H68.7V21.1C68.7 24 67.1 25.4 64.6 25.4C62.1 25.5 60.5 24.1 60.5 21.3Z" fill="white"/>
<path d="M71 15.8H72.5L77.7 22.4V15.8H79.3V25.4H77.9L72.6 18.6V25.4H71V15.8Z" fill="white"/>
<path d="M83.6 15.8H81.9V25.4H83.6V15.8Z" fill="white"/>
<path d="M85.3 15.8H87.2L90 23.2L92.9 15.8H94.7L90.8 25.4H89.3L85.3 15.8Z" fill="white"/>
<path d="M96.4 15.8H103.5V17.3H98.1V19.8H102.9V21.3H98.1V23.9H103.5V25.4H96.4V15.8Z" fill="white"/>
<path d="M109.7 20.5C110.9 20.5 111.7 19.9 111.7 18.9C111.7 17.9 111 17.3 109.7 17.3H107.3V20.5H109.7ZM105.5 15.8H109.8C111 15.8 111.9 16.2 112.6 16.8C113.1 17.3 113.4 18 113.4 18.9C113.4 20.5 112.5 21.4 111.1 21.8L113.7 25.4H111.7L109.3 22.1H107.2V25.4H105.5V15.8Z" fill="white"/>
<path d="M114.8 24L115.8 22.8C116.7 23.6 117.6 24 118.8 24C119.8 24 120.5 23.5 120.5 22.8C120.5 22.1 120.1 21.7 118.3 21.3C116.3 20.8 115.1 20.2 115.1 18.4C115.1 16.8 116.5 15.6 118.4 15.6C119.8 15.6 120.9 16 121.9 16.8L121 18.1C120.1 17.5 119.3 17.1 118.4 17.1C117.4 17.1 116.8 17.6 116.8 18.2C116.8 18.9 117.2 19.3 119.1 19.7C121.1 20.2 122.2 20.9 122.2 22.5C122.2 24.3 120.8 25.4 118.8 25.4C117.3 25.5 115.9 25 114.8 24Z" fill="white"/>
<path d="M126 15.8H124.3V25.4H126V15.8Z" fill="white"/>
<path d="M132.1 23.8C134.1 23.8 135.4 22.4 135.4 20.6C135.4 18.7 134.1 17.3 132.1 17.3H130.2V23.8H132.1ZM128.5 15.8H132.1C135.1 15.8 137.2 17.9 137.2 20.6C137.2 23.3 135.1 25.4 132.1 25.4H128.5V15.8Z" fill="white"/>
<path d="M144.4 21.6L142.7 17.8L141.1 21.6H144.4ZM141.9 15.7H143.5L147.7 25.3H145.9L144.9 23H140.4L139.4 25.3H137.7L141.9 15.7Z" fill="white"/>
<path d="M152.9 23.8C154.9 23.8 156.2 22.4 156.2 20.6C156.2 18.7 154.9 17.3 152.9 17.3H151V23.8H152.9ZM149.4 15.8H153C156 15.8 158.1 17.9 158.1 20.6C158.1 23.3 156 25.4 153 25.4H149.4V15.8Z" fill="white"/>
<path d="M59 38.5C59 33.4 62.9 29.2 68.3 29.2C71.5 29.2 73.4 30.1 75.3 31.6L72.8 34.6C71.4 33.5 70.2 32.8 68.1 32.8C65.2 32.8 63 35.3 63 38.3V38.4C63 41.7 65.2 44.1 68.4 44.1C69.8 44.1 71.1 43.7 72.1 43V40.5H68.2V37.1H76V44.8C74.2 46.4 71.6 47.6 68.4 47.6C62.8 47.7 59 43.8 59 38.5Z" fill="white"/>
<path d="M87.7 42.6V41.9C87 41.6 86.2 41.4 85.2 41.4C83.5 41.4 82.5 42.1 82.5 43.3V43.4C82.5 44.4 83.4 45.1 84.6 45.1C86.4 45 87.7 44 87.7 42.6ZM78.8 43.5C78.8 40.5 81.1 39.1 84.3 39.1C85.7 39.1 86.7 39.3 87.6 39.7V39.5C87.6 37.9 86.6 37 84.7 37C83.2 37 82.2 37.3 80.9 37.7L79.9 34.7C81.4 34 82.9 33.6 85.2 33.6C87.3 33.6 88.8 34.2 89.8 35.1C90.8 36.1 91.3 37.6 91.3 39.5V47.4H87.6V45.9C86.7 46.9 85.4 47.6 83.5 47.6C80.9 47.6 78.8 46.2 78.8 43.5Z" fill="white"/>
<path d="M105.1 40.6C105.1 38.3 103.6 36.8 101.8 36.8C100 36.8 98.5 38.3 98.5 40.6V40.7C98.5 43 100 44.5 101.8 44.5C103.6 44.4 105.1 42.9 105.1 40.6ZM98.5 45.6V47.4H94.6V28.8H98.5V35.7C99.4 34.4 100.7 33.5 102.8 33.5C106 33.5 109 36 109 40.6V40.7C109 45.3 106 47.8 102.8 47.8C100.7 47.6 99.5 46.7 98.5 45.6Z" fill="white"/>
<path d="M111.8 33.7H115.7V36.4C116.5 34.5 117.8 33.3 120.1 33.4V37.4H119.9C117.3 37.4 115.7 39 115.7 42.2V47.2H111.8V33.7Z" fill="white"/>
<path d="M122.7 33.7H126.6V47.3H122.7V33.7ZM122.6 28.8H126.7V32.2H122.6V28.8Z" fill="white"/>
<path d="M139.1 39.5C138.9 37.8 137.8 36.6 136.2 36.6C134.6 36.6 133.6 37.7 133.2 39.5H139.1ZM129.5 40.6C129.5 36.7 132.3 33.4 136.2 33.4C140.8 33.4 142.8 36.9 142.8 40.8C142.8 41.1 142.8 41.5 142.7 41.8H133.2C133.6 43.6 134.8 44.5 136.5 44.5C137.8 44.5 138.7 44.1 139.8 43.1L142 45.1C140.7 46.7 138.9 47.6 136.4 47.6C132.5 47.7 129.5 44.8 129.5 40.6Z" fill="white"/>
<path d="M149.9 28.8H146V47.4H149.9V28.8Z" fill="white"/>
<path d="M161.5 42.6V41.9C160.8 41.6 160 41.4 159 41.4C157.3 41.4 156.3 42.1 156.3 43.3V43.4C156.3 44.4 157.2 45.1 158.4 45.1C160.3 45 161.5 44 161.5 42.6ZM152.7 43.5C152.7 40.5 155 39.1 158.2 39.1C159.6 39.1 160.6 39.3 161.5 39.7V39.5C161.5 37.9 160.5 37 158.6 37C157.1 37 156.1 37.3 154.8 37.7L153.8 34.7C155.3 34 156.8 33.6 159.1 33.6C161.2 33.6 162.7 34.2 163.7 35.1C164.7 36.1 165.2 37.6 165.2 39.5V47.4H161.5V45.9C160.6 46.9 159.3 47.6 157.4 47.6C154.8 47.6 152.7 46.2 152.7 43.5Z" fill="white"/>
<path d="M176.6 29.6H180.8L185.5 37.1L190.2 29.6H194.4V47.4H190.5V35.7L185.5 43.4H185.4L180.4 35.8V47.4H176.6V29.6Z" fill="white"/>
<path d="M198.5 33.7H202.4V47.3H198.5V33.7ZM198.4 28.8H202.5V32.2H198.4V28.8Z" fill="white"/>
<path d="M204.9 45.6L206.6 43.1C208.1 44.2 209.6 44.7 210.9 44.7C212 44.7 212.5 44.3 212.5 43.7V43.6C212.5 42.8 211.2 42.5 209.7 42C207.8 41.4 205.6 40.6 205.6 37.9V37.8C205.6 35 207.8 33.5 210.6 33.5C212.3 33.5 214.2 34.1 215.7 35.1L214.2 37.8C212.8 37 211.5 36.5 210.5 36.5C209.6 36.5 209.1 36.9 209.1 37.4V37.5C209.1 38.3 210.4 38.6 211.9 39.1C213.8 39.7 216 40.7 216 43.1V43.2C216 46.2 213.7 47.6 210.8 47.6C208.8 47.6 206.7 47 204.9 45.6Z" fill="white"/>
<path d="M219.1 43.5V37H217.5V33.7H219.1V30.2H223V33.7H226.2V37H223V42.8C223 43.7 223.4 44.1 224.2 44.1C224.9 44.1 225.5 43.9 226.1 43.6V46.7C225.3 47.2 224.3 47.5 223 47.5C220.7 47.6 219.1 46.7 219.1 43.5Z" fill="white"/>
<path d="M229.1 33.7H233V36.4C233.8 34.5 235.1 33.3 237.4 33.4V37.4H237.2C234.6 37.4 233 39 233 42.2V47.2H229.1V33.7Z" fill="white"/>
<path d="M247.1 42.6V41.9C246.4 41.6 245.6 41.4 244.6 41.4C242.9 41.4 241.9 42.1 241.9 43.3V43.4C241.9 44.4 242.8 45.1 244 45.1C245.9 45 247.1 44 247.1 42.6ZM238.3 43.5C238.3 40.5 240.6 39.1 243.8 39.1C245.2 39.1 246.2 39.3 247.1 39.7V39.5C247.1 37.9 246.1 37 244.2 37C242.7 37 241.7 37.3 240.4 37.7L239.4 34.7C240.9 34 242.4 33.6 244.7 33.6C246.8 33.6 248.3 34.2 249.3 35.1C250.3 36.1 250.8 37.6 250.8 39.5V47.4H247.1V45.9C246.2 46.9 244.9 47.6 243 47.6C240.4 47.6 238.3 46.2 238.3 43.5Z" fill="white"/>
<path d="M258.2 28.8H254.3V47.4H258.2V28.8Z" fill="white"/>
<path d="M60.5 21.3V15.8H62.2V21.2C62.2 23 63.1 23.9 64.6 23.9C66.1 23.9 67 23 67 21.2V15.7H68.7V21.1C68.7 24 67.1 25.4 64.6 25.4C62.1 25.5 60.5 24.1 60.5 21.3Z" fill="white"/>
<path d="M70.8 15.8H72.4L77.6 22.5V15.8H79.3V25.5H77.9L72.5 18.6V25.5H70.8V15.8Z" fill="white"/>
<path d="M83.6 15.8H81.9V25.4H83.6V15.8Z" fill="white"/>
<path d="M85.3 15.8H87.2L90 23.2L92.9 15.8H94.7L90.8 25.4H89.3L85.3 15.8Z" fill="white"/>
<path d="M96.4 15.8H103.5V17.3H98.1V19.8H102.9V21.3H98.1V23.9H103.5V25.4H96.4V15.8Z" fill="white"/>
<path d="M109.7 20.5C110.9 20.5 111.7 19.9 111.7 18.9C111.7 17.9 111 17.3 109.7 17.3H107.3V20.5H109.7ZM105.5 15.8H109.8C111 15.8 111.9 16.2 112.6 16.8C113.1 17.3 113.4 18 113.4 18.9C113.4 20.5 112.5 21.4 111.1 21.8L113.7 25.4H111.7L109.3 22.1H107.2V25.4H105.5V15.8Z" fill="white"/>
<path d="M114.8 24L115.8 22.8C116.7 23.6 117.6 24 118.8 24C119.8 24 120.5 23.5 120.5 22.8C120.5 22.1 120.1 21.7 118.3 21.3C116.3 20.8 115.1 20.2 115.1 18.4C115.1 16.8 116.5 15.6 118.4 15.6C119.8 15.6 120.9 16 121.9 16.8L121 18.1C120.1 17.5 119.3 17.1 118.4 17.1C117.4 17.1 116.8 17.6 116.8 18.2C116.8 18.9 117.2 19.3 119.1 19.7C121.1 20.2 122.2 20.9 122.2 22.5C122.2 24.3 120.8 25.4 118.8 25.4C117.3 25.5 115.9 25 114.8 24Z" fill="white"/>
<path d="M126 15.8H124.3V25.4H126V15.8Z" fill="white"/>
<path d="M132.1 23.8C134.1 23.8 135.4 22.4 135.4 20.6C135.4 18.7 134.1 17.3 132.1 17.3H130.2V23.8H132.1ZM128.5 15.8H132.1C135.1 15.8 137.2 17.9 137.2 20.6C137.2 23.3 135.1 25.4 132.1 25.4H128.5V15.8Z" fill="white"/>
<path d="M144.4 21.6L142.7 17.8L141.1 21.6H144.4ZM141.9 15.7H143.5L147.7 25.3H145.9L144.9 23H140.4L139.4 25.3H137.7L141.9 15.7Z" fill="white"/>
<path d="M152.9 23.8C154.9 23.8 156.2 22.4 156.2 20.6C156.2 18.7 154.9 17.3 152.9 17.3H151V23.8H152.9ZM149.4 15.8H153C156 15.8 158.1 17.9 158.1 20.6C158.1 23.3 156 25.4 153 25.4H149.4V15.8Z" fill="white"/>
<path d="M59 38.5C59 33.4 62.9 29.2 68.3 29.2C71.5 29.2 73.4 30.1 75.3 31.6L72.8 34.6C71.4 33.5 70.2 32.8 68.1 32.8C65.2 32.8 63 35.3 63 38.3V38.4C63 41.7 65.2 44.1 68.4 44.1C69.8 44.1 71.1 43.7 72.1 43V40.5H68.2V37.1H76V44.8C74.2 46.4 71.6 47.6 68.4 47.6C62.8 47.7 59 43.8 59 38.5Z" fill="white"/>
<path d="M87.7 42.6V41.9C87 41.6 86.2 41.4 85.2 41.4C83.5 41.4 82.5 42.1 82.5 43.3V43.4C82.5 44.4 83.4 45.1 84.6 45.1C86.4 45 87.7 44 87.7 42.6ZM78.8 43.5C78.8 40.5 81.1 39.1 84.3 39.1C85.7 39.1 86.7 39.3 87.6 39.7V39.5C87.6 37.9 86.6 37 84.7 37C83.2 37 82.2 37.3 80.9 37.7L79.9 34.7C81.4 34 82.9 33.6 85.2 33.6C87.3 33.6 88.8 34.2 89.8 35.1C90.8 36.1 91.3 37.6 91.3 39.5V47.4H87.6V45.9C86.7 46.9 85.4 47.6 83.5 47.6C80.9 47.6 78.8 46.2 78.8 43.5Z" fill="white"/>
<path d="M105.1 40.6C105.1 38.3 103.6 36.8 101.8 36.8C100 36.8 98.5 38.3 98.5 40.6V40.7C98.5 43 100 44.5 101.8 44.5C103.6 44.4 105.1 42.9 105.1 40.6ZM98.5 45.6V47.4H94.6V28.8H98.5V35.7C99.4 34.4 100.7 33.5 102.8 33.5C106 33.5 109 36 109 40.6V40.7C109 45.3 106 47.8 102.8 47.8C100.7 47.6 99.5 46.7 98.5 45.6Z" fill="white"/>
<path d="M111.8 33.7H115.7V36.4C116.5 34.5 117.8 33.3 120.1 33.4V37.4H119.9C117.3 37.4 115.7 39 115.7 42.2V47.2H111.8V33.7Z" fill="white"/>
<path d="M122.7 33.7H126.6V47.3H122.7V33.7ZM122.6 28.8H126.7V32.2H122.6V28.8Z" fill="white"/>
<path d="M139.1 39.5C138.9 37.8 137.8 36.6 136.2 36.6C134.6 36.6 133.6 37.7 133.2 39.5H139.1ZM129.5 40.6C129.5 36.7 132.3 33.4 136.2 33.4C140.8 33.4 142.8 36.9 142.8 40.8C142.8 41.1 142.8 41.5 142.7 41.8H133.2C133.6 43.6 134.8 44.5 136.5 44.5C137.8 44.5 138.7 44.1 139.8 43.1L142 45.1C140.7 46.7 138.9 47.6 136.4 47.6C132.5 47.7 129.5 44.8 129.5 40.6Z" fill="white"/>
<path d="M149.9 28.8H146V47.4H149.9V28.8Z" fill="white"/>
<path d="M161.5 42.6V41.9C160.8 41.6 160 41.4 159 41.4C157.3 41.4 156.3 42.1 156.3 43.3V43.4C156.3 44.4 157.2 45.1 158.4 45.1C160.3 45 161.5 44 161.5 42.6ZM152.7 43.5C152.7 40.5 155 39.1 158.2 39.1C159.6 39.1 160.6 39.3 161.5 39.7V39.5C161.5 37.9 160.5 37 158.6 37C157.1 37 156.1 37.3 154.8 37.7L153.8 34.7C155.3 34 156.8 33.6 159.1 33.6C161.2 33.6 162.7 34.2 163.7 35.1C164.7 36.1 165.2 37.6 165.2 39.5V47.4H161.5V45.9C160.6 46.9 159.3 47.6 157.4 47.6C154.8 47.6 152.7 46.2 152.7 43.5Z" fill="white"/>
<path d="M176.6 29.6H180.8L185.5 37.1L190.2 29.6H194.4V47.4H190.5V35.7L185.5 43.4H185.4L180.4 35.8V47.4H176.6V29.6Z" fill="white"/>
<path d="M198.5 33.7H202.4V47.3H198.5V33.7ZM198.4 28.8H202.5V32.2H198.4V28.8Z" fill="white"/>
<path d="M204.9 45.6L206.6 43.1C208.1 44.2 209.6 44.7 210.9 44.7C212 44.7 212.5 44.3 212.5 43.7V43.6C212.5 42.8 211.2 42.5 209.7 42C207.8 41.4 205.6 40.6 205.6 37.9V37.8C205.6 35 207.8 33.5 210.6 33.5C212.3 33.5 214.2 34.1 215.7 35.1L214.2 37.8C212.8 37 211.5 36.5 210.5 36.5C209.6 36.5 209.1 36.9 209.1 37.4V37.5C209.1 38.3 210.4 38.6 211.9 39.1C213.8 39.7 216 40.7 216 43.1V43.2C216 46.2 213.7 47.6 210.8 47.6C208.8 47.6 206.7 47 204.9 45.6Z" fill="white"/>
<path d="M219.1 43.5V37H217.5V33.7H219.1V30.2H223V33.7H226.2V37H223V42.8C223 43.7 223.4 44.1 224.2 44.1C224.9 44.1 225.5 43.9 226.1 43.6V46.7C225.3 47.2 224.3 47.5 223 47.5C220.7 47.6 219.1 46.7 219.1 43.5Z" fill="white"/>
<path d="M229.1 33.7H233V36.4C233.8 34.5 235.1 33.3 237.4 33.4V37.4H237.2C234.6 37.4 233 39 233 42.2V47.2H229.1V33.7Z" fill="white"/>
<path d="M247.1 42.6V41.9C246.4 41.6 245.6 41.4 244.6 41.4C242.9 41.4 241.9 42.1 241.9 43.3V43.4C241.9 44.4 242.8 45.1 244 45.1C245.9 45 247.1 44 247.1 42.6ZM238.3 43.5C238.3 40.5 240.6 39.1 243.8 39.1C245.2 39.1 246.2 39.3 247.1 39.7V39.5C247.1 37.9 246.1 37 244.2 37C242.7 37 241.7 37.3 240.4 37.7L239.4 34.7C240.9 34 242.4 33.6 244.7 33.6C246.8 33.6 248.3 34.2 249.3 35.1C250.3 36.1 250.8 37.6 250.8 39.5V47.4H247.1V45.9C246.2 46.9 244.9 47.6 243 47.6C240.4 47.6 238.3 46.2 238.3 43.5Z" fill="white"/>
<path d="M258.2 28.8H254.3V47.4H258.2V28.8Z" fill="white"/>
<path d="M26.4 0.800003C11.2 0.800003 0.800018 11.5 0.600018 27.5C0.300018 57.1 24.3 78 26.6 79.9C28.1 78.7 36.8 70.6 43.5 58.4L43.6 58.2C49.1 48.1 51.9 37.7 52 27.4C52.1 19.3 49.6 12.6 44.9 7.9C40.4 3.3 34 0.800003 26.6 0.800003H26.4Z" fill="white"/>
<path d="M26.4 0.8C11.3 0.8 1.00002 11.4 0.800021 27.3C0.400021 56.8 24.3 77.6 26.6 79.4C28.1 78.2 36.7 70.2 43.4 58L43.5 57.8C49 47.7 51.8 37.5 51.9 27.2C52 19.2 49.5 12.5 44.9 7.8C40.4 3.2 34 0.8 26.6 0.7H26.4V0.8ZM26.6 80.3C26.2 80.3 23 77.2 21.9 76.2C15.2 69.4 -0.299979 51.1 2.09776e-05 27.3C0.200021 10.9 10.8 0 26.4 0H26.6C34.1 0 40.8 2.6 45.4 7.3C50.2 12.2 52.7 19.1 52.7 27.3C52.6 37.6 49.8 48 44.4 58.1L44.2 58.3C36.8 71.9 27.1 80.3 26.6 80.3Z" fill="#BE850F"/>
<path d="M6.49998 19.7L9.09998 20.4C10.3 20.7 10.7 21.6 10.5 22.4C10.3 23.2 9.79998 24 8.39998 23.6L5.59998 22.9L5.29998 23.4L5.09998 23.3L5.59998 21.5L5.79998 21.6V22.2L8.59998 22.9C9.39998 23.1 9.99998 22.8 10.2 22.2C10.3 21.6 9.99998 21 8.99998 20.7L6.39998 20L6.09998 20.5L5.89998 20.4L6.29998 19L6.49998 19.1V19.7Z" fill="#252E62"/>
<path d="M13.1 16.2L8.19998 16.7L11.4 18.4L11.8 18L12 18.1L11.3 19.4L11.1 19.3L11.2 18.7L7.69998 16.7L7.29998 17.1L7.09998 17L7.69998 15.9L11.7 15.5L9.09998 14.1L8.69998 14.5L8.49998 14.4L9.19998 13.2L9.39998 13.3L9.19998 13.8L13.2 16L13.1 16.2Z" fill="#252E62"/>
<path d="M14.8 13.6L15.3 13.3L15.4 13.4L14.2 14.8L14 14.6L14.3 14.1L11.2 11.3L10.8 11.6L10.6 11.5L11.9 10.1L12 10.3L11.8 10.8L14.8 13.6Z" fill="#252E62"/>
<path d="M14.1 8.6L13.6 8.7L13.5 8.5L15.1 7.5L15.2 7.7L14.8 8.2L17.5 10.4L16.7 7L16.1 7.1L16 6.9L17.2 6.2L17.3 6.4L17 6.8L18.1 11.5L17.9 11.6L14.1 8.6Z" fill="#252E62"/>
<path d="M20.6 9.8L21.1 9.5L20 5.5H19.5L19.4 5.3L22.5 4.5L22.8 5.7L22.6 5.8L22.1 4.9L20.7 5.3L21.2 7L22 6.8V6.1L22.2 6L22.6 7.7L22.5 7.8L22.1 7.1L21.3 7.3L21.8 9.4L23.2 9L23.3 7.8L23.5 7.7L23.8 9.1L20.7 10L20.6 9.8Z" fill="#252E62"/>
<path d="M26.4 6.40001H26.8C27.4 6.40001 27.7 6.00001 27.8 5.30001C27.8 4.70001 27.5 4.30001 27 4.30001C26.8 4.30001 26.7 4.30001 26.6 4.30001L26.4 6.40001ZM25.7 4.50001L25.2 4.30001V4.10001H26.9C27.9 4.10001 28.5 4.40001 28.5 5.30001C28.5 6.00001 28.1 6.50001 27.1 6.60001C27.4 6.70001 27.7 6.80001 28 7.30001L28.6 8.50001C28.7 8.70001 28.8 8.80001 29.1 8.80001L29 9.00001C28.9 9.00001 28.6 9.10001 28.3 9.10001C28 9.10001 27.9 9.00001 27.7 8.60001L27 7.10001C26.9 6.90001 26.8 6.70001 26.5 6.70001H26.4V8.60001L27 8.80001V9.00001H25.1V8.80001L25.6 8.60001L25.7 4.50001Z" fill="#252E62"/>
<path d="M31.1 9.60001C30.7 9.50001 30.3 9.30001 30 9.00001L30.2 7.80001L30.4 7.90001C30.3 8.70001 30.4 9.20001 31.1 9.40001C31.5 9.50001 32 9.30001 32.1 8.90001C32.4 7.60001 30.3 7.40001 30.7 5.80001C30.9 4.90001 31.6 4.60001 32.4 4.80001C32.8 4.90001 33.2 5.10001 33.4 5.30001L33.1 6.40001L33 6.20001C33.1 5.60001 32.9 5.10001 32.4 4.90001C32 4.90001 31.6 5.00001 31.5 5.50001C31.2 6.80001 33.3 7.00001 32.8 8.60001C32.6 9.40001 31.9 9.90001 31.1 9.60001Z" fill="#252E62"/>
<path d="M34.9 10.6L35.4 11L35.3 11.2L33.6 10.3L33.7 10.1L34.3 10.2L36.1 6.6L35.7 6.2L35.8 6L37.5 6.8L37.4 7L36.8 6.9L34.9 10.6Z" fill="#252E62"/>
<path d="M40.7 9.6L40.3 9.2L37.4 12.3L37.8 12.7C38.5 13.4 39.5 13.2 40.5 12.2C41.2 11.4 41.6 10.4 40.7 9.6ZM36.4 11.5L36.9 11.7L39.7 8.7L39.4 8.2L39.6 8L41 9.4C42.1 10.4 42.2 11.5 41.1 12.6C40 13.9 38.8 14 37.7 13L36.3 11.7L36.4 11.5Z" fill="#252E62"/>
<path d="M42.3 15.3L42.9 16.3L44 15L42.3 15.3ZM42.6 16.5L41.9 15.4L40.5 15.7L40.6 16.3L40.4 16.4L39.7 15.2L40 15L40.4 15.4L45.2 14.5L45.3 14.7L42.1 18.3L42.2 18.8L42 18.9L41 17.3L41.2 17.2L41.6 17.6L42.6 16.5Z" fill="#252E62"/>
<path d="M47.3 20.5L47.1 19.9L43 21L43.2 21.6C43.5 22.6 44.4 23 45.7 22.6C46.7 22.3 47.6 21.7 47.3 20.5ZM42.6 19.8L42.9 20.3L46.9 19.2V18.6L47.1 18.5L47.6 20.4C48 21.8 47.4 22.8 46 23.2C44.4 23.6 43.3 23 42.9 21.6L42.4 19.7L42.6 19.8Z" fill="#252E62"/>
<path d="M38.8 61L39 61.1L37.9 62.6L37.7 62.5L37.9 62L34.9 59.9L37.5 63.4L37.3 63.6L33.1 62.5L36.1 64.6L36.5 64.2L36.7 64.4L35.9 65.5L35.7 65.4L35.9 64.9L32.6 62.6L32.1 62.9L31.9 62.8L32.7 61.7L36.5 62.6L34.2 59.5L35 58.4L35.2 58.5L35 59L38.3 61.3L38.8 61Z" fill="#252E62"/>
<path d="M40.3 58.2L40.7 57.8L40.9 57.9L39.9 59.5L39.7 59.4L39.9 58.8L36.4 56.8L36 57.2L35.8 57.1L36.7 55.5L36.9 55.6L36.8 56.1L40.3 58.2Z" fill="#252E62"/>
<path d="M42.4 55.3C42.2 55.7 41.9 56 41.5 56.2L40.4 55.7L40.5 55.5C41.2 55.7 41.8 55.7 42.1 55.1C42.3 54.7 42.3 54.2 41.8 54C40.6 53.4 39.9 55.4 38.5 54.7C37.7 54.3 37.5 53.5 37.9 52.8C38.1 52.5 38.4 52.1 38.6 51.9L39.6 52.4L39.5 52.6C38.9 52.4 38.4 52.5 38.1 53C37.9 53.3 38 53.7 38.4 53.9C39.6 54.5 40.3 52.5 41.7 53.2C42.6 53.7 42.9 54.5 42.4 55.3Z" fill="#252E62"/>
<path d="M44 51.3L44.1 50.7L40.3 49.1L39.9 50L40.7 50.7L40.6 50.9L39.4 50.3L40.9 46.9L42.1 47.4L42 47.6L41 47.5L40.6 48.4L44.3 50L44.7 49.5L44.9 49.6L44.2 51.4L44 51.3Z" fill="#252E62"/>
<path d="M44 44.9L44.1 44.5C44.3 43.9 44 43.5 43.4 43.3C42.8 43.1 42.4 43.3 42.2 43.8C42.2 44 42.1 44.1 42.1 44.2L44 44.9ZM41.9 45.1L41.6 45.6L41.4 45.5L41.9 43.8C42.2 42.9 42.6 42.3 43.5 42.6C44.2 42.8 44.5 43.4 44.3 44.3C44.5 44 44.7 43.8 45.2 43.7L46.5 43.5C46.7 43.5 46.8 43.3 47 43.1L47.2 43.2C47.2 43.3 47.2 43.6 47.1 43.9C47 44.2 46.8 44.3 46.5 44.4L44.7 44.7C44.4 44.7 44.3 44.8 44.2 45.1V45.2L46 45.8L46.3 45.3L46.5 45.4L46 47L45.8 46.9V46.3L41.9 45.1Z" fill="#252E62"/>
<path d="M46 39.8L46.2 38.7L44.5 38.9L46 39.8ZM46.5 38.6L46.2 39.9L47.4 40.6L47.7 40.1H47.9L47.6 41.5H47.4V41L43.3 38.4V38.2L48.1 37.6L48.4 37.1H48.6L48.2 39H48V38.4L46.5 38.6Z" fill="#252E62"/>
<path d="M48.7 34L48.8 32.6L47.7 32.1V31.9L49.2 32.1L48.8 35.4L48.6 35.3L48.5 34.8L44.5 34.3L44.3 34.9L44.1 34.8L44.2 33H44.5L44.6 33.6L48.7 34Z" fill="#252E62"/>
<path d="M5.4 32.3L5.5 31.7H5.7L5.8 33.6H5.6L5.4 33.1L3.9 33.2C3.7 32.9 3.5 32.3 3.4 31.8C3.3 30.4 3.9 29.4 5.7 29.3C7.5 29.2 8.3 30.1 8.4 31.4C8.4 31.9 8.3 32.6 8.2 32.9L7.1 33V32.8C7.8 32.5 8.2 32.1 8.2 31.4C8.1 30.5 7.1 30 5.9 30.1C4.6 30.2 3.7 30.7 3.7 31.8C3.7 32.1 3.8 32.4 3.9 32.5L5.4 32.3Z" fill="#252E62"/>
<path d="M6.1 36.4L6.3 37.5L7.7 36.7L6.1 36.4ZM6 37.7L5.8 36.4L4.5 36.2V36.8H4.3L4 35.4H4.2L4.5 35.9L9.2 36.7V36.9L5 39.1L4.9 39.6H4.7L4.3 37.7H4.5L4.8 38.2L6 37.7Z" fill="#252E62"/>
<path d="M8.19999 42.4C8.39999 42.9 8.79999 43.1 9.39999 42.9C9.89999 42.8 10.2 42.4 9.99999 41.9C9.99999 41.7 9.89999 41.5 9.79999 41.5L8.09999 42L8.19999 42.4ZM7.89999 42.5L7.79999 42.2L5.89999 42.8C5.89999 42.9 5.89999 43.1 5.99999 43.2C6.19999 43.9 6.79999 44 7.29999 43.9C7.79999 43.6 8.09999 43.1 7.89999 42.5ZM5.39999 41.5L5.69999 42L9.49999 40.8V40.2L9.69999 40.1L10.2 41.9C10.4 42.6 10.5 43.3 9.59999 43.6C8.79999 43.8 8.49999 43.5 8.19999 42.9C8.39999 43.6 8.19999 44.3 7.49999 44.5C6.59999 44.8 6.09999 44.3 5.79999 43.3L5.29999 41.5H5.39999Z" fill="#252E62"/>
<path d="M9.69999 47L9.79999 47.4C9.99999 48 10.5 48.1 11.1 47.9C11.6 47.7 11.9 47.3 11.6 46.7C11.5 46.5 11.4 46.4 11.4 46.3L9.69999 47ZM11.1 45.6V45L11.3 44.9L12 46.5C12.4 47.4 12.4 48.1 11.5 48.5C10.9 48.8 10.2 48.6 9.79999 47.7C9.89999 48 9.79999 48.4 9.49999 48.8L8.69999 49.8C8.59999 50 8.49999 50.1 8.59999 50.4L8.39999 50.5C8.29999 50.4 8.09999 50.1 7.99999 49.9C7.89999 49.6 7.99999 49.4 8.19999 49.2L9.29999 47.9C9.49999 47.7 9.49999 47.5 9.39999 47.3L9.29999 47.2L7.59999 47.9L7.69999 48.5L7.49999 48.6L6.79999 46.9L6.99999 46.8L7.39999 47.3L11.1 45.6Z" fill="#252E62"/>
<path d="M10.1 53L10.2 53.5L9.99998 53.6L9.09998 52L9.29998 51.9L9.69998 52.3L13.3 50.5L13.2 49.9L13.4 49.8L14.2 51.5L14 51.6L13.6 51.2L10.1 53Z" fill="#252E62"/>
<path d="M11 55.1L11.4 55.5L14.9 53.5L14.7 52.9L14.9 52.8L16.5 55.6L15.4 56.2L15.3 56.1L16 55.3L15.3 54.1L13.7 55L14.2 55.7L14.9 55.5L15 55.7L13.5 56.5L13.4 56.4L13.9 55.9L13.5 55.2L11.7 56.2L12.5 57.4L13.6 57.2L13.7 57.3L12.5 58L10.8 55.2L11 55.1Z" fill="#252E62"/>
<path d="M14.5 60.6L15.3 61.8L16.5 61.4L16.6 61.6L15.4 62.4L13.5 59.7L13.7 59.5L14.1 59.9L17.4 57.6L17.2 57.1L17.4 57L18.5 58.5L18.3 58.6L17.8 58.3L14.5 60.6Z" fill="#252E62"/>
<path d="M18.8 63.7L19.5 64.6L20.4 63.2L18.8 63.7ZM19.4 64.8L18.6 63.7L17.3 64.1L17.5 64.6L17.3 64.7L16.4 63.6L16.6 63.5L17.1 63.8L21.6 62.3L21.7 62.5L19.2 66.5L19.4 67L19.2 67.1L18 65.8L18.2 65.7L18.7 66L19.4 64.8Z" fill="#252E62"/>
<path d="M10.8 29.8C10.7 17.8 18.2 11.4 26.8 11.5C35.5 11.5 42 17.8 42 29.8C41.9 48.8 27 65.8 26.9 65.8C26.6 65.8 10.8 48.8 10.8 29.8Z" fill="#242F62"/>
<path d="M29 54.3C28.7 54.2 28.1 53.9 28.1 53.9C28.1 53.9 26.7 53.2 26.7 52.4V52.2C26.6 52.2 26.4 52.3 26.2 52.3C26 52.3 25.8 52.3 25.7 52.2V52.4C25.7 53.2 24.3 53.9 24.3 53.9C24.3 53.9 23.7 54.2 23.4 54.3C22.9 54.5 22.2 54.6 22.3 54.7C22.3 54.8 23.1 54.7 23.8 54.5C24.6 54.3 25.4 53.8 25.4 53.9C25.5 54 24.8 54.6 24.2 55C23.8 55.3 23.4 55.5 23.5 55.6C23.5 55.7 23.9 55.7 24.3 55.6C24.6 55.5 24.8 55.2 24.9 55.2C25 55.2 25.1 56 25.3 56C25.4 56 25.5 53.9 26.4 53.8C27.2 53.9 27.3 56 27.5 56C27.6 56 27.7 55.2 27.9 55.2C28 55.2 28.2 55.5 28.5 55.6C28.9 55.7 29.3 55.7 29.3 55.6C29.3 55.6 28.9 55.3 28.6 55C28 54.5 27.3 54 27.4 53.9C27.4 53.8 28.2 54.3 29 54.5C29.7 54.7 30.5 54.8 30.5 54.7C30.2 54.6 29.5 54.5 29 54.3Z" fill="#BE850F"/>
<path d="M22.5 48.8C22.4 49.3 22.9 49.5 23.1 49.6C23.3 49.3 23.4 48.7 23.3 48.3C23.1 48.2 22.5 48.2 22.5 48.8Z" fill="#BE850F"/>
<path d="M23.3 46.6L22.3 46.9C22.2 46.9 22.2 46.9 22.2 46.8C22.2 46.7 22.2 46.7 22.3 46.7C22.3 46.7 23.2 46.5 23.3 46.5C23.4 46.5 23.4 46.4 23.3 46.4C23.3 46.4 22.7 45.5 22.6 45.5C22.6 45.5 22.5 45.4 22.5 45.5C22.4 45.5 21.5 45.9 21.5 45.9C21.4 45.9 21.4 45.9 21.4 45.8C21.4 45.7 21.4 45.7 21.5 45.7C21.5 45.7 22.3 45.5 22.4 45.4C22.5 45.4 22.5 45.3 22.4 45.3C22.4 45.2 21.9 44.6 21.9 44.6C21.9 44.6 21.8 44.5 21.7 44.5C21.6 44.5 20.7 44.9 20.7 44.9C20.6 44.9 20.6 44.9 20.6 44.8C20.6 44.7 20.6 44.7 20.7 44.7C20.7 44.7 21.6 44.5 21.6 44.4C21.7 44.4 21.7 44.3 21.6 44.3L20.8 43.4V43.3H20.9C20.9 43.3 21.5 44.1 21.6 44.2C21.7 44.3 21.7 44.2 21.7 44.2L22.2 43.4C22.2 43.3 22.3 43.3 22.3 43.4C22.3 43.4 22.4 43.5 22.3 43.5C22.3 43.5 21.7 44.3 21.7 44.4C21.7 44.4 21.7 44.5 21.7 44.6C21.7 44.7 22.2 45.2 22.3 45.3H22.4C22.4 45.2 22.9 44.5 22.9 44.5C22.9 44.5 23 44.4 23 44.5C23 44.5 23.1 44.6 23 44.6L22.4 45.5C22.4 45.5 22.3 45.6 22.4 45.7C22.4 45.8 22.9 46.3 22.9 46.4H23C23 46.3 23.6 45.7 23.6 45.7C23.6 45.7 23.7 45.6 23.7 45.7C23.7 45.7 23.8 45.8 23.7 45.8C23.7 45.8 23.1 46.5 23 46.5C23 46.6 22.9 46.6 23 46.7C23 46.8 23.3 47.1 23.3 47.1V47.2H23.2C23.2 47.2 23.1 47.1 23.1 47C23.5 46.6 23.4 46.6 23.3 46.6ZM24.4 47.9C24.4 47.9 24.9 48.4 25.1 48.9C25.1 48.9 25.1 49 25 49C24.9 49 24.5 48.9 24.5 48.9C24.4 48.8 24.3 48.3 23.6 48.2C23.5 48.2 23.5 48.3 23.4 48.3C23.5 48.7 23.4 49.3 23.2 49.6C23.2 49.7 23.3 49.7 23.4 49.7C24 49.7 24.2 49.5 24.4 49.3C24.5 49.2 25.2 49.2 25.5 49.6C25.5 49.6 25.7 49.9 25.8 50.2C25.9 50.2 26 50.2 26.2 50.2C26.1 49.8 25.4 48.8 25.4 48.8C25 48.3 24.7 47.7 24.7 47.7C24.4 47.2 24.5 46.7 24.5 46.7L24.8 45.4C24.8 45.4 25 44.7 24.7 44.6C24.5 44.5 24.2 44.9 24.2 44.9C24.2 44.9 24.1 45 24 44.9C23.8 44.8 24.1 44.1 24.2 44C24.2 43.9 24.5 43.2 24.1 43.1C23.7 43 23.6 43.5 23.5 43.6C23.3 43.8 23 43.7 23.1 43.4C23.1 43.3 23.2 43 23.2 42.7C23.2 42 22.6 42.2 22.5 42.4C22.3 42.7 22.1 42.6 22.1 42.5C21.7 42 20.9 42.3 20.5 42.6C20.1 42.9 19.6 43.5 20 44.1C20 44.2 20.1 44.4 19.8 44.5C19.5 44.6 19.3 45.1 19.9 45.3C20.2 45.4 20.6 45.3 20.6 45.3C20.8 45.3 20.9 45.6 20.7 45.7C20.6 45.8 20 45.7 20.1 46.2C20.1 46.6 20.9 46.5 21 46.5C21.1 46.5 21.8 46.3 21.9 46.5C21.9 46.6 21.8 46.7 21.8 46.7C21.7 46.8 21.4 46.9 21.4 47.2C21.4 47.5 22.1 47.5 22.1 47.5H23.4C23.4 47.5 23.9 47.5 24.4 47.9Z" fill="#BE850F"/>
<path d="M26.9 52C26.9 51.9 26.9 51.9 26.8 51.8C26.9 51.7 26.9 51.7 26.9 51.6C26.9 51.5 26.9 51.5 26.8 51.4C26.9 51.3 26.9 51.3 26.9 51.2C26.9 51.1 26.9 51.1 26.8 51C26.8 51 26.9 50.9 26.9 50.8C26.9 50.7 26.9 50.7 26.8 50.6L26.9 50.5C26.9 50.3 26.6 50.2 26.2 50.2C25.8 50.2 25.5 50.3 25.5 50.5C25.5 50.6 25.5 50.6 25.6 50.6H25.8C25.8 50.6 25.7 50.6 25.6 50.6C25.6 50.6 25.5 50.7 25.5 50.8C25.5 50.9 25.5 50.9 25.6 51C25.5 51 25.5 51.1 25.5 51.2C25.5 51.3 25.5 51.3 25.6 51.4C25.5 51.5 25.5 51.5 25.5 51.6C25.5 51.7 25.5 51.7 25.6 51.8C25.5 51.9 25.5 51.9 25.5 52C25.5 52.2 25.8 52.3 26.2 52.3C26.6 52.2 26.9 52.1 26.9 52Z" fill="white"/>
<path d="M29.3 43.5C29.3 43.4 29.3 43.4 29.3 43.5C29.4 43.5 29.5 43.5 29.4 43.5L28.5 45.8H28.4L29.3 43.5ZM29.5 45.9L31.7 43.5C31.7 43.5 31.8 43.4 31.8 43.5V43.6C31.9 43.7 29.7 46 29.5 45.9C29.6 46 29.5 46 29.5 45.9ZM30.3 46.4L32.6 45.3H32.7V45.4C32.7 45.4 30.4 46.4 30.3 46.4ZM29.7 47C32.4 46.8 33.1 45.3 33.1 45.3C31.6 45 30.6 46 29.9 46.5C29.2 47 28.4 47.2 28.4 47.2C28.7 46.8 29.1 46.5 29.3 46.5C32.4 45.2 32.6 42.8 32.6 42.9C29.9 43.8 29.8 45.4 29 46.3C28.6 46.8 28.2 47.4 28.1 47.3C28 47.2 28.2 46.4 28.4 46.2C29.7 45 29.4 42.9 29.4 43C27.9 44.3 28.1 45.6 27.8 47.4C27.7 48.1 27.1 48.4 26.1 50.4C26.2 50.4 26.4 50.4 26.5 50.4C26.6 50.2 26.8 49.8 26.9 49.6C27.1 49.3 27.9 49.2 28 49.3C28.1 49.4 28.4 49.8 29.1 49.8C29.7 49.8 30.1 49.4 30.1 48.9C30.1 48.5 29.6 48.1 29 48.2C28.4 48.2 28.2 48.7 28 48.9C27.8 49.1 27.4 49.1 27.3 49C27.3 48.7 28.5 47.1 29.7 47Z" fill="#BE850F"/>
<path d="M31.9 23C31.7 23 31.5 23 31.3 23C31.2 23 31.2 23 31.1 23H31H30.9H30.8C30.8 23 30.8 23 30.7 23C30.3 22.9 29.9 22.9 29.6 22.9C27.8 22.9 26.9 23.6 26.6 23.9C26.5 23.9 26.4 26.4 26.4 26.4L26.2 23.9C26 23.7 25 22.9 23.2 22.9C22.8 22.9 22.5 22.9 22.1 23C22 23 21.5 23.1 20.9 23.1C20 23.1 18.7 23 17.7 22.6V34.6C18.1 34.8 19.8 35.6 21.7 35.3C21.8 35.3 24.1 35 26.4 35.9L26.6 33.4L26.8 35.9C29.1 35 31.4 35.3 31.5 35.3C33.4 35.6 35.1 34.8 35.5 34.6V22.6C34.1 22.9 32.8 23 31.9 23Z" fill="white"/>
<path d="M35.4 34.7C35.3 34.8 33.3 35.8 31.1 35.5C31.1 35.5 28.7 35.1 26.3 36.1H26.2C23.9 35.1 21.5 35.5 21.4 35.5C19.2 35.8 17.3 34.8 17.2 34.7H17.1V22.7L15.9 23.7V35.4C16.1 35.6 17.2 36.4 19.5 36.4C19.8 36.4 20.2 36.4 20.5 36.3C20.5 36.3 21.7 36.1 22.9 36.1C23.9 36.1 24.6 36.2 25 36.4H25.1V36.5C25.1 36.5 25.1 36.5 25.1 36.6C25.1 37.1 25.6 37.5 26.1 37.5C26.7 37.5 27.1 37.1 27.1 36.6V36.5V36.4H27.2C27.6 36.2 28.3 36 29.3 36C30.5 36 31.7 36.2 31.7 36.2C32 36.2 32.4 36.3 32.7 36.3C35 36.3 36.1 35.4 36.3 35.3V23.6L35.1 22.6V34.7H35.4Z" fill="white"/>
<path d="M20.3 28L20.5 28.7H20.1L20.3 28ZM20.4 27.3L19.7 29.3L19.5 29.4V29.5H20.1V29.4L19.9 29.3L20.1 28.7H20.6L20.8 29.3L20.6 29.4V29.5H21.4V29.4L21.2 29.3L20.4 27.3Z" fill="#BE850F"/>
<path d="M22.8 27.9C22.8 27.6 22.6 27.4 22.4 27.4C22.3 27.4 22.1 27.5 22.1 27.7C22.1 28.2 23 28.1 23 28.8C23 29.2 22.8 29.4 22.4 29.4C22.2 29.4 22 29.3 21.9 29.3V28.8H22C22 29.1 22.2 29.4 22.4 29.4C22.6 29.4 22.7 29.3 22.7 29.1C22.7 28.5 21.8 28.7 21.8 28C21.8 27.6 22.1 27.4 22.4 27.4C22.6 27.4 22.7 27.5 22.9 27.5L22.8 27.9Z" fill="#BE850F"/>
<path d="M25 29.4C24.9 29.5 24.7 29.6 24.4 29.6C23.8 29.6 23.4 29.3 23.4 28.5C23.4 27.7 23.8 27.4 24.3 27.4C24.5 27.4 24.8 27.5 24.9 27.5V28H24.8C24.7 27.6 24.5 27.5 24.3 27.5C23.9 27.5 23.7 27.9 23.7 28.5C23.7 29.1 23.9 29.5 24.3 29.5C24.5 29.5 24.7 29.3 24.8 29H25V29.4Z" fill="#BE850F"/>
<path d="M25.5 27.4V27.5L25.7 27.6V29.3L25.5 29.4V29.5H26.8L26.9 28.9H26.8L26.6 29.4H26.1V28.5H26.4L26.5 28.8V28L26.4 28.3H26.1V27.5H26.6L26.7 28H26.8V27.4H25.5Z" fill="#BE850F"/>
<path d="M28.6 27.4V27.5L28.8 27.6V28.8L27.9 27.4H27.3V27.5L27.5 27.6V29.3L27.3 29.4V29.5H27.9V29.4L27.7 29.3V27.7L28.8 29.5H28.9V27.6L29.1 27.5V27.4H28.6Z" fill="#BE850F"/>
<path d="M30.1 29.4H30.3C30.7 29.4 31 29.1 31 28.5C31 28 30.9 27.6 30.4 27.6H30.2V29.4H30.1ZM29.5 29.4L29.7 29.3V27.5L29.5 27.4V27.3H30.4C31 27.3 31.4 27.6 31.4 28.3C31.4 29 31 29.4 30.4 29.4H29.5Z" fill="#BE850F"/>
<path d="M31.7 27.4V27.5L32 27.6V29.3L31.7 29.4V29.5H33.1V28.9H33L32.9 29.4H32.3V28.5H32.6L32.7 28.8H32.8V28H32.7L32.6 28.3H32.3V27.5H32.9L33 28H33.1V27.4H31.7Z" fill="#BE850F"/>
<path d="M20.2 30.8C20.2 30.5 20 30.3 19.8 30.3C19.7 30.3 19.5 30.4 19.5 30.6C19.5 31.1 20.4 31 20.4 31.7C20.4 32.1 20.2 32.3 19.8 32.3C19.6 32.3 19.4 32.2 19.3 32.2V31.7H19.4C19.4 32 19.6 32.3 19.9 32.3C20.1 32.3 20.2 32.2 20.2 32C20.2 31.4 19.3 31.6 19.3 30.9C19.3 30.5 19.6 30.3 19.9 30.3C20.1 30.3 20.2 30.4 20.4 30.4L20.2 30.8Z" fill="#BE850F"/>
<path d="M22.5 30.5V31.7C22.5 32.3 22.2 32.5 21.8 32.5C21.5 32.5 21.1 32.4 21.1 31.8V30.5L20.9 30.4V30.3H21.7V30.4L21.5 30.5V31.7C21.5 32.1 21.7 32.3 21.9 32.3C22.2 32.3 22.4 32.1 22.4 31.6V30.4L22.2 30.3V30.2H22.8V30.3L22.5 30.5Z" fill="#BE850F"/>
<path d="M23.3 30.5L23.1 30.4V30.3H23.8C24.2 30.3 24.5 30.4 24.5 30.8C24.5 31.2 24.2 31.4 23.8 31.4H23.7V31.3C24 31.3 24.1 31.1 24.1 30.8C24.1 30.5 24 30.4 23.8 30.4C23.7 30.4 23.7 30.4 23.6 30.4V32.2L23.8 32.3V32.4H23V32.3L23.2 32.2V30.5H23.3Z" fill="#BE850F"/>
<path d="M24.9 30.3V30.4L25.1 30.5V32.2L24.9 32.3V32.4H26.2L26.3 31.8H26.2L26 32.3H25.5V31.4H25.8L25.9 31.7V30.9L25.8 31.2H25.5V30.4H26L26.2 30.9V30.3H24.9Z" fill="#BE850F"/>
<path d="M27.3 31.3H27.4C27.7 31.3 27.8 31.1 27.8 30.8C27.8 30.5 27.7 30.4 27.5 30.4C27.4 30.4 27.4 30.4 27.3 30.4V31.3ZM26.9 30.5L26.7 30.4V30.3H27.4C27.8 30.3 28.1 30.4 28.1 30.8C28.1 31.1 27.9 31.3 27.5 31.4C27.7 31.4 27.8 31.5 27.9 31.7L28.1 32.2C28.1 32.3 28.2 32.3 28.3 32.3V32.4C28.3 32.4 28.1 32.4 28 32.4C27.9 32.4 27.8 32.3 27.7 32.2L27.4 31.5C27.3 31.4 27.3 31.3 27.2 31.3V32.1L27.4 32.2V32.3H26.6V32.2L26.8 32.1V30.5H26.9Z" fill="#BE850F"/>
<path d="M28.8 30.3V30.4L29 30.5V32.2L28.8 32.3V32.4H29.6V32.3L29.3 32.2V30.5L29.6 30.4V30.3H28.8Z" fill="#BE850F"/>
<path d="M31.6 30.5V31.7C31.6 32.3 31.3 32.5 30.9 32.5C30.6 32.5 30.2 32.4 30.2 31.8V30.5L30 30.4V30.3H30.8V30.4L30.6 30.5V31.7C30.6 32.1 30.8 32.3 31 32.3C31.3 32.3 31.5 32.1 31.5 31.6V30.4L31.3 30.3V30.2H31.9V30.3L31.6 30.5Z" fill="#BE850F"/>
<path d="M33.2 30.8C33.2 30.5 33 30.3 32.8 30.3C32.7 30.3 32.5 30.4 32.5 30.6C32.5 31.1 33.4 31 33.4 31.7C33.4 32.1 33.2 32.3 32.8 32.3C32.6 32.3 32.4 32.2 32.3 32.2V31.7H32.4C32.4 32 32.6 32.3 32.9 32.3C33.1 32.3 33.2 32.2 33.2 32C33.2 31.4 32.3 31.6 32.3 30.9C32.3 30.5 32.6 30.3 32.9 30.3C33.1 30.3 33.2 30.4 33.4 30.4L33.2 30.8Z" fill="#BE850F"/>
<path d="M82.1 75.1C82.1 74.1 83 72.6 84.6 71.1C87 69 90.6 67 93.7 66.2C94.3 66 94.2 66.1 94.5 65.7C96.1 62.9 96.8 59.9 96.8 57.5C96.8 55.1 96 53.2 94.4 52.9C94.2 52.9 94.1 52.8 93.9 52.8C91.5 52.8 88 55.5 87.7 57.7C87.6 58.1 87.4 58.4 87.2 58.4C86.9 58.4 86.5 58 86.5 57.4C86.5 55.2 90.1 51.9 93.1 51.5C93.4 51.5 93.6 51.4 93.8 51.4C96.6 51.4 98.1 54 98.1 57.6C98.1 59.8 97.5 62.5 96.2 65.2C96 65.6 95.9 65.8 95.9 65.9C95.9 65.9 96.3 65.8 96.5 65.8C97.3 65.7 97.9 65.6 98.3 65.6C98.9 65.6 99.2 65.7 99.3 65.8C99.3 65.9 99.4 65.9 99.4 65.9C99.4 66 99.2 66.1 98.6 66.1C97.9 66.1 96.5 66.4 95.7 66.6C95.5 66.7 95.5 66.5 95.3 67C92.3 72 86.8 76.5 83.8 76.5C83.6 76.5 83.4 76.5 83.3 76.4C82.5 76.3 82.1 75.8 82.1 75.1ZM93.4 67.5C93.5 67.3 93.6 67.2 93.6 67.2C93.5 67.2 93.4 67.3 93.3 67.3C90.9 68.1 88.3 69.5 86.4 70.9C84.4 72.4 83.2 74.2 83.2 75.2C83.2 75.6 83.4 75.8 83.9 75.8H84C84.2 75.8 84.4 75.8 84.7 75.7C87.2 74.8 91.1 71.2 93.4 67.5Z" fill="#27A9CB"/>
<path d="M104.3 63.8C104.5 63.9 104.6 64 104.6 64.1C104.6 64.3 104.5 64.6 104.2 65.2C103.2 67.2 102.7 68.7 102.7 69.6C102.7 70.4 103 70.8 103.6 70.8C104.4 70.8 105.7 70 107.3 68.2C108.3 67.2 108.6 66.9 108.7 66.9C108.8 66.9 108.8 66.9 108.9 67C109 67 109 67.1 109 67.2C109 67.5 108.5 68.1 107.2 69.3C105.7 70.8 104.7 71.4 103.7 71.5H103.5C102.4 71.5 101.6 70.5 101.6 69.1C101.6 68.9 101.6 68.7 101.7 68.4C101.7 68.3 101.7 68.3 101.7 68.3C101.7 68.3 101.6 68.4 101.4 68.7C99.8 71 98.7 72 97.8 72C97.7 72 97.6 72 97.5 72C96.7 71.8 96.3 71 96.3 69.8C96.3 68.7 96.7 67.2 97.4 65.8C98 64.6 98.7 63.8 99.2 63.8C99.4 63.8 99.5 63.9 99.6 64.1C99.7 64.2 99.7 64.3 99.7 64.4C99.7 64.6 99.5 65 99 66C98.1 67.6 97.5 69.5 97.5 70.4C97.5 70.6 97.6 70.8 97.6 70.9C97.7 71 97.7 71 97.8 71C98.1 71 98.7 70.6 99.3 70C100 69.1 101.9 66.4 102.4 65.3C103 64.3 103.4 63.7 103.8 63.7C104.2 63.7 104.2 63.7 104.3 63.8Z" fill="#27A9CB"/>
<path d="M110.2 63.9C110.2 64.1 110.1 64.3 110 64.5C109.7 65.2 108.8 67.1 108.8 67.3C108.8 67.3 109 67.1 109.1 66.8C110 65.4 110.7 64.7 111.3 64.8C111.8 64.8 112.2 65.6 112.3 67C112.4 68.9 112.8 69.6 113.7 69.7C114.4 69.7 115.4 69.4 116.6 67.4C116.9 66.9 117.1 66.8 117.2 66.8C117.3 66.8 117.3 66.9 117.4 66.9C117.5 67 117.5 67 117.5 67.1C117.5 67.8 115.5 70.6 113.7 70.6H113.5C112.3 70.5 111.5 69.3 111.3 66.9C111.3 66.5 111.2 66.1 111.2 66C111 66 109.7 67.5 108.8 69C108 70.3 107.9 70.3 107.6 71.7C107.6 71.9 107.3 72.1 107.1 72.1C107 72.1 107 72.1 106.9 72.1C106.7 72 106.6 71.6 106.6 71C106.7 67.5 108.5 63.4 109.9 63.6C110 63.5 110.2 63.6 110.2 63.9Z" fill="#27A9CB"/>
<path d="M124.2 51.2C124.4 51.3 124.5 51.4 124.5 51.6C124.5 51.8 124.5 51.9 124.4 52.2C124.2 52.7 124.1 52.9 123.9 52.9H123.8C123.7 52.9 121.7 56.6 121.7 56.8C121.7 56.8 122.1 56.8 122.6 56.9C126.1 57 129.2 57.4 129.6 57.8C129.7 57.9 129.8 58 129.8 58.1C129.8 58.3 129.6 58.4 129.2 58.4C129.1 58.4 128.9 58.4 128.8 58.4C126.1 58 123.8 57.9 122.5 57.9C121.7 57.9 121.3 57.9 121.3 57.9C118.9 63.2 117.1 68.7 117.1 71.1C117.1 71.3 117.1 71.4 117.1 71.6C117.2 72.5 117.5 72.9 118 72.9C118.9 72.9 120.5 71 122.4 67.5C122.7 67 122.9 66.7 123 66.7C123 66.7 123.1 66.7 123.1 66.8C123.2 66.9 123.2 66.9 123.2 67C123.2 67.3 122.9 68 122.2 69.2C120.3 72.3 119.1 73.6 118 73.6C117.9 73.6 117.8 73.6 117.7 73.6C116.7 73.4 116.2 72.3 116.2 70.5C116.2 67.8 117.3 63.6 119.5 58.8C119.7 58.5 119.8 58.1 119.8 58.1C119.8 58.1 119.7 58 119.5 58C119.2 58 118.8 58 118.2 58.1C114.9 58.3 112.2 58.5 111.9 58.8C111.8 58.9 111.7 58.9 111.6 58.9C111.3 58.9 111.1 58.7 111.1 58.5C111.1 58.4 111.1 58.3 111.2 58.2C111.6 57.8 115.8 57.3 119.6 57.1C120.3 57.1 120.3 57.1 120.7 56.3C122.6 52.6 123.5 51.3 124.1 51.3C124.1 51.1 124.1 51.2 124.2 51.2Z" fill="#27A9CB"/>
<path d="M125.2 63.6C125.4 63.6 125.6 63.8 125.7 64C125.8 64.1 125.8 64.2 125.8 64.2H125.9C126 64.2 126.1 64.1 126.2 64.2C126.6 64.2 127 64.5 127.2 65C127.4 65.5 127.5 66 127.4 66.6C127.2 69.3 124.6 72.6 122.5 72.4C122.4 72.4 122.2 72.3 122.1 72.3C121.2 72 120.8 71 120.9 69.7C121 68.3 121.7 66.6 122.9 65C123.7 64.1 124.5 63.6 125.2 63.6ZM122.6 70.1C122.5 70.8 122.8 71.1 123.2 71.2H123.4C124.9 70.8 126.4 68.1 126.6 66.4C126.7 65.7 126.4 65.1 125.9 65C125.8 64.9 125.6 64.9 125.5 64.9H125.4C124.8 64.8 122.7 68.5 122.6 70.1Z" fill="#27A9CB"/>
<path d="M135.3 63.7C135.4 63.8 135.4 64 135.4 64.1C135.4 64.5 135.2 64.9 134.8 65.2C134.7 65.3 134.6 65.3 134.5 65.3C134.2 65.3 134 65.1 134 64.8V64.7C134 64.6 134 64.6 134 64.6V64.5H133.9C132.1 64.9 128.7 67 128.7 67.7C128.7 67.9 129.1 68.1 130.1 68.5C130.8 68.8 131.3 69 131.7 69.2C131.8 69.3 131.9 69.3 131.9 69.3C132 69.3 132.2 69.2 132.6 69.1C134.8 68 137.6 67.1 138.4 67.1C138.5 67.1 138.5 67.1 138.5 67.1C138.6 67.1 138.7 67.2 138.7 67.3C138.7 67.4 138.5 67.6 138 67.7C136.7 68 134.1 69.1 132.9 69.8C132.7 69.9 132.6 70 132.6 70C132.6 70.1 132.6 70.1 132.7 70.2C133 70.7 133.1 71.2 133.1 71.7C133.1 74 130.6 76.3 127.8 76.3C127.5 76.3 127.1 76.3 126.8 76.2C126.1 76 125.8 75.7 125.8 75.1C125.8 73.8 127.6 71.8 130.6 70.1C130.8 70 131 69.9 131 69.8C131 69.7 130.7 69.6 129.7 69.3C128 68.7 127.6 68.4 127.6 67.6C127.6 65.7 132 63.1 134.1 63.1C134.7 63.2 135.1 63.3 135.3 63.7ZM131.2 70.8C128.6 72.3 126.9 74 126.9 75.1C126.9 75.4 127.2 75.6 127.8 75.6C128 75.6 128.3 75.5 128.7 75.5C131.1 74.9 132.4 73 132.4 71.6C132.4 71.3 132.3 70.9 132.2 70.7C132.1 70.5 132 70.5 131.9 70.5C131.7 70.5 131.6 70.6 131.2 70.8Z" fill="#27A9CB"/>
<path d="M149.9 65.5C149.9 65.7 149.9 65.9 149.8 66.2C149.5 67.5 148.5 68.4 147.6 68.4C147.4 68.4 147.2 68.3 146.9 68.2C146.8 68.2 146.8 68.1 146.7 68.1C146.6 68.1 146.6 68.2 146.5 68.6C146.3 69.1 146.3 69.6 146.3 70C146.3 71 146.8 71.6 147.7 71.6C148.2 71.6 148.8 71.4 149.4 71.1C150.5 70.5 151.7 69.2 152.5 68.1C153 67.4 153.2 67.3 153.3 67.3C153.4 67.3 153.5 67.4 153.5 67.5C153.5 67.9 152.8 69 151.8 70C150.2 71.6 148.6 72.6 147.3 72.6C147.1 72.6 146.9 72.6 146.8 72.5C145.5 72.2 144.8 71 144.8 69.6C144.8 68.1 145.5 66.3 146.9 64.9C147.5 64.4 148.1 64.1 148.5 64.1C149.4 64.1 149.9 64.6 149.9 65.5ZM147.3 67L147.4 67.1C147.5 67.1 147.6 67.1 147.6 67C147.9 66.9 148.4 66 148.4 65.8C148.4 65.8 148.4 65.7 148.3 65.7C148.2 65.7 147.3 66.8 147.3 67Z" fill="#27A9CB"/>
<path d="M159.7 63.7C159.8 63.8 159.8 64 159.8 64.1C159.8 64.5 159.6 64.9 159.2 65.2C159.1 65.3 159 65.3 158.9 65.3C158.6 65.3 158.4 65.1 158.4 64.8V64.7C158.4 64.6 158.4 64.6 158.4 64.6V64.5H158.3C156.5 64.9 153.1 67 153.1 67.7C153.1 67.9 153.5 68.1 154.5 68.5C155.2 68.8 155.7 69 156.1 69.2C156.2 69.3 156.3 69.3 156.3 69.3C156.4 69.3 156.6 69.2 157 69.1C159.2 68 162 67.1 162.8 67.1C162.9 67.1 162.9 67.1 162.9 67.1C163 67.1 163.1 67.2 163.1 67.3C163.1 67.4 162.9 67.6 162.4 67.7C161.1 68 158.5 69.1 157.3 69.8C157.1 69.9 157 70 157 70C157 70.1 157 70.1 157.1 70.2C157.4 70.7 157.5 71.2 157.5 71.7C157.5 74 155 76.3 152.2 76.3C151.9 76.3 151.5 76.3 151.2 76.2C150.5 76 150.2 75.7 150.2 75.1C150.2 73.8 152 71.8 155 70.1C155.2 70 155.4 69.9 155.4 69.8C155.4 69.7 155.1 69.6 154.1 69.3C152.4 68.7 152 68.4 152 67.6C152 65.7 156.4 63.1 158.5 63.1C159.2 63.2 159.6 63.3 159.7 63.7ZM155.6 70.8C153 72.3 151.3 74 151.3 75.1C151.3 75.4 151.6 75.6 152.2 75.6C152.4 75.6 152.7 75.5 153.1 75.5C155.5 74.9 156.8 73 156.8 71.6C156.8 71.3 156.7 70.9 156.6 70.7C156.5 70.5 156.4 70.5 156.3 70.5C156.1 70.5 156 70.6 155.6 70.8Z" fill="#27A9CB"/>
<path d="M165 63.7C165.6 63.7 166.1 64.1 166.1 64.8C166.1 65.4 165.7 65.8 165.4 65.8C165.2 65.8 165.1 65.7 165 65.5C165 65.4 164.9 65.3 164.8 65.3C164.2 65.3 162.8 67.2 162.2 68.8C161.9 69.5 161.8 70.1 161.8 70.6C161.8 71.5 162.2 72 162.9 72C164.1 72 166.2 70.7 168.4 68.1C168.8 67.6 169.1 67.4 169.2 67.4C169.3 67.4 169.3 67.4 169.4 67.5C169.4 67.6 169.4 67.6 169.4 67.7C169.4 68.1 168.9 68.7 167.6 70C165.7 71.9 164.1 72.8 162.9 72.8C162.7 72.8 162.5 72.8 162.3 72.7C161.1 72.4 160.6 71.3 160.6 69.9C160.6 68.2 161.4 66.2 162.9 64.7C163.6 64 164.3 63.7 165 63.7Z" fill="#27A9CB"/>
<path d="M171.2 63.6C171.3 63.7 171.3 63.8 171.3 63.9C171.3 64 171.2 64.2 171.1 64.5C170.5 65.7 169.3 68.2 169.3 68.4C169.3 68.4 169.4 68.3 169.5 68.2C171.5 65.6 174.3 63.6 175.7 63.6C176.4 63.6 176.8 64.1 176.8 64.6C176.8 64.9 176.7 65.2 176.4 65.4C176.2 65.5 176.1 65.6 175.9 65.6C175.6 65.6 175.3 65.4 175.3 65C175.3 64.9 175.3 64.8 175.4 64.7C175.4 64.6 175.4 64.6 175.3 64.6C175.1 64.6 174.9 64.7 174.5 64.8C172 65.8 168.2 69.8 168.2 71.3C168.2 71.4 168.2 71.5 168.2 71.5C168.2 71.6 168.3 71.7 168.3 71.7C168.3 72 168 72.4 167.6 72.4C167.5 72.4 167.4 72.4 167.3 72.3C167 72.1 166.9 71.8 166.9 71.2C166.9 69.6 167.9 66.7 169.5 64.4C169.9 63.7 170.4 63.4 170.7 63.4C171 63.3 171.1 63.4 171.2 63.6Z" fill="#27A9CB"/>
<path d="M179.1 64.8C179.1 65 179 65.2 178.9 65.5C177.8 67.3 177.1 69.3 177.1 70.5C177.1 71.1 177.3 71.5 177.7 71.5C177.8 71.5 177.8 71.5 177.9 71.5C178.7 71.3 179.5 70.6 181.3 68.3C181.8 67.6 182.1 67.4 182.2 67.4C182.2 67.4 182.3 67.4 182.3 67.5C182.4 67.5 182.4 67.6 182.4 67.7C182.4 68.1 181.8 68.9 180.5 70.3C179.3 71.7 178.4 72.3 177.5 72.3C177.3 72.3 177.2 72.3 177.1 72.2C176.2 71.9 175.8 70.8 175.8 69.5C175.8 68.1 176.2 66.5 177.1 65.2C177.5 64.5 178.1 64.3 178.4 64.3C178.8 64.1 179.1 64.4 179.1 64.8ZM180.3 62.4C180.3 62.5 180.3 62.6 180.2 62.7C180.1 63.1 179.7 63.3 179.4 63.3C179.3 63.3 179.2 63.3 179.1 63.2C178.8 63.1 178.7 62.8 178.7 62.4C178.7 62.2 178.8 62 178.9 61.8C179.1 61.6 179.3 61.5 179.5 61.5C179.9 61.6 180.3 62 180.3 62.4Z" fill="#27A9CB"/>
<path d="M188 52.6C188.2 52.7 188.3 52.9 188.3 53.1C188.3 53.3 188.2 53.5 188 53.7C187.4 54.4 185 59.4 183.7 62.6C183 64.4 181.8 68 181.8 68.2C181.8 68.2 181.9 68 182 67.8C183.4 64.5 185.3 62.7 186.7 62.7C187.5 62.7 188.1 63.5 188.1 65C188.1 65.3 188.1 65.7 188 66.1C187.5 69.8 184.5 73.4 182.6 73.4C182 73.4 181.5 73 181.3 72.1C181.2 71.9 181.2 71.8 181.2 71.8C181.1 72.1 180.8 73.4 180.8 73.6C180.7 74.1 180.5 74.4 180.2 74.4C180.1 74.4 180 74.4 180 74.3C179.8 74.2 179.7 73.9 179.7 73.4C179.7 73 179.8 72.4 179.9 71.5C180.8 66.4 182.4 61.4 185 56.3C186.5 53.3 187.2 52.2 187.8 52.2C187.8 52.5 187.9 52.5 188 52.6ZM182 69.9C181.9 70.1 181.9 70.3 181.9 70.4C181.8 70.7 181.8 71 181.8 71.3C181.8 72.1 182.1 72.6 182.5 72.6C182.6 72.6 182.7 72.6 182.8 72.5C184.6 71.7 186.6 67.6 186.6 65.3C186.6 64.9 186.5 64.6 186.4 64.4C186.4 64.3 186.3 64.3 186.3 64.3H186.2C185.4 64.3 182.4 68.2 182 69.9Z" fill="#27A9CB"/>
<path d="M191.6 64.8C191.6 65 191.5 65.2 191.4 65.5C190.3 67.3 189.6 69.3 189.6 70.5C189.6 71.1 189.8 71.5 190.2 71.5C190.3 71.5 190.3 71.5 190.4 71.5C191.2 71.3 192 70.6 193.8 68.3C194.3 67.6 194.6 67.4 194.7 67.4C194.7 67.4 194.8 67.4 194.8 67.5C194.9 67.5 194.9 67.6 194.9 67.7C194.9 68.1 194.3 68.9 193 70.3C191.8 71.7 190.9 72.3 190 72.3C189.8 72.3 189.7 72.3 189.6 72.2C188.7 71.9 188.3 70.8 188.3 69.5C188.3 68.1 188.7 66.5 189.6 65.2C190 64.5 190.6 64.3 190.9 64.3C191.3 64.1 191.6 64.4 191.6 64.8ZM192.8 62.4C192.8 62.5 192.8 62.6 192.7 62.7C192.6 63.1 192.2 63.3 191.9 63.3C191.8 63.3 191.7 63.3 191.6 63.2C191.3 63.1 191.2 62.8 191.2 62.4C191.2 62.2 191.3 62 191.4 61.8C191.6 61.6 191.8 61.5 192 61.5C192.4 61.6 192.8 62 192.8 62.4Z" fill="#27A9CB"/>
<path d="M199.1 63.6C199.3 63.8 199.3 64 199.3 64.5C199.3 65 199.2 65.9 199 67.3C198.8 68.7 198.7 69.8 198.7 70.2C198.7 70.3 198.7 70.4 198.7 70.4C198.8 70.4 199.2 69.8 199.9 68.7C201.2 66.6 201.7 66 202.1 66C202.2 66 202.3 66 202.3 66.1C202.6 66.3 202.6 66.5 202.7 67.7C202.8 69.6 203 70.4 203.6 70.4C204 70.4 204.8 70 205.9 67.9C206.1 67.4 206.5 67.2 206.6 67.2C206.7 67.2 206.7 67.2 206.7 67.3L206.8 67.4C206.8 68.1 205.2 71 203.8 71.1H203.6C202.7 71.1 202 69.9 202 68.2C202 67.6 201.9 66.9 201.9 66.9C201.8 67 201.2 67.8 200.6 68.8C199.3 70.8 199 71.3 198.5 71.3H198.4C197.9 71.2 197.7 70.7 197.7 69.6C197.7 68.8 197.8 67.8 198 66.4C198.1 65.5 198.2 65 198.2 64.8C198.2 64.7 198.2 64.7 198.2 64.7C198.2 64.7 198.2 64.7 198.1 64.8C196.5 66.6 193.8 70.8 193.7 71.8C193.7 72.2 193.4 72.4 193.2 72.4C193.1 72.4 193 72.4 192.9 72.3C192.7 72.1 192.6 71.8 192.6 71.3C192.6 68.9 194.6 63.6 195.8 63.6H195.9C196.2 63.7 196.3 63.9 196.3 64.2C196.3 64.5 196.2 64.7 196 65C195.8 65.1 195.7 65.5 195.3 66.5C195.1 67.1 194.8 68 194.8 68.1C194.8 68.1 195 67.7 195.2 67.4C196.7 64.8 197.8 63.5 198.6 63.5C198.8 63.3 198.9 63.4 199.1 63.6Z" fill="#27A9CB"/>
<path d="M208.5 63.6C208.7 63.6 208.9 63.8 209 64C209.1 64.1 209.1 64.2 209.1 64.2H209.2C209.3 64.2 209.4 64.1 209.5 64.2C209.9 64.2 210.3 64.5 210.5 65C210.7 65.5 210.8 66 210.7 66.6C210.5 69.3 207.9 72.6 205.8 72.4C205.7 72.4 205.5 72.3 205.4 72.3C204.5 72 204.1 71 204.2 69.7C204.3 68.3 205 66.6 206.2 65C207 64.1 207.8 63.6 208.5 63.6ZM205.9 70.1C205.8 70.8 206.1 71.1 206.5 71.2H206.7C208.2 70.8 209.7 68.1 209.9 66.4C210 65.7 209.7 65.1 209.2 65C209.1 64.9 208.9 64.9 208.8 64.9H208.7C208.1 64.8 206.1 68.5 205.9 70.1Z" fill="#27A9CB"/>
<path d="M218.6 63.7C218.7 63.8 218.7 64 218.7 64.1C218.7 64.5 218.5 64.9 218.1 65.2C218 65.3 217.9 65.3 217.8 65.3C217.5 65.3 217.3 65.1 217.3 64.8V64.7C217.3 64.6 217.3 64.6 217.3 64.6V64.5H217.2C215.4 64.9 212 67 212 67.7C212 67.9 212.4 68.1 213.4 68.5C214.1 68.8 214.6 69 215 69.2C215.1 69.3 215.2 69.3 215.2 69.3C215.3 69.3 215.5 69.2 215.9 69.1C218.1 68 220.9 67.1 221.7 67.1C221.8 67.1 221.8 67.1 221.8 67.1C221.9 67.1 222 67.2 222 67.3C222 67.4 221.8 67.6 221.3 67.7C220 68 217.4 69.1 216.1 69.8C215.9 69.9 215.8 70 215.8 70C215.8 70.1 215.8 70.1 215.9 70.2C216.2 70.7 216.3 71.2 216.3 71.7C216.3 74 213.8 76.3 211 76.3C210.7 76.3 210.3 76.3 210 76.2C209.3 76 209 75.7 209 75.1C209 73.8 210.8 71.8 213.8 70.1C214 70 214.2 69.9 214.2 69.8C214.2 69.7 213.9 69.6 212.9 69.3C211.2 68.7 210.8 68.4 210.8 67.6C210.8 65.7 215.2 63.1 217.3 63.1C218.1 63.2 218.5 63.3 218.6 63.7ZM214.5 70.8C211.9 72.3 210.2 74 210.2 75.1C210.2 75.4 210.5 75.6 211.1 75.6C211.3 75.6 211.6 75.5 212 75.5C214.4 74.9 215.7 73 215.7 71.6C215.7 71.3 215.6 70.9 215.5 70.7C215.4 70.5 215.3 70.5 215.2 70.5C215 70.5 214.9 70.6 214.5 70.8Z" fill="#27A9CB"/>
<path d="M236.4 51.2C236.6 51.3 236.7 51.4 236.7 51.6C236.7 51.8 236.7 51.9 236.6 52.2C236.4 52.7 236.3 52.9 236.1 52.9H236C235.9 52.9 233.9 56.6 233.9 56.8C233.9 56.8 234.3 56.8 234.8 56.9C238.3 57 241.4 57.4 241.8 57.8C241.9 57.9 242 58 242 58.1C242 58.3 241.8 58.4 241.4 58.4C241.3 58.4 241.1 58.4 241 58.4C238.3 58 236 57.9 234.7 57.9C233.9 57.9 233.5 57.9 233.5 57.9C231.1 63.2 229.3 68.7 229.3 71.1C229.3 71.3 229.3 71.4 229.3 71.6C229.4 72.5 229.7 72.9 230.2 72.9C231.1 72.9 232.7 71 234.6 67.5C234.9 67 235.1 66.7 235.2 66.7C235.2 66.7 235.3 66.7 235.3 66.8C235.4 66.9 235.4 66.9 235.4 67C235.4 67.3 235.1 68 234.4 69.2C232.5 72.3 231.3 73.6 230.2 73.6C230.1 73.6 230 73.6 229.9 73.6C228.9 73.4 228.4 72.3 228.4 70.5C228.4 67.8 229.5 63.6 231.7 58.8C231.9 58.5 232 58.1 232 58.1C232 58.1 231.9 58 231.7 58C231.4 58 231 58 230.4 58.1C227.1 58.3 224.4 58.5 224.1 58.8C224 58.9 223.9 58.9 223.8 58.9C223.5 58.9 223.3 58.7 223.3 58.5C223.3 58.4 223.3 58.3 223.4 58.2C223.8 57.8 228 57.3 231.8 57.1C232.5 57.1 232.5 57.1 232.9 56.3C234.8 52.6 235.7 51.3 236.3 51.3C236.3 51.1 236.3 51.2 236.4 51.2Z" fill="#27A9CB"/>
<path d="M241.4 63.8C241.6 63.9 241.7 64 241.7 64.1C241.7 64.3 241.6 64.6 241.3 65.2C240.3 67.2 239.8 68.7 239.8 69.6C239.8 70.4 240.1 70.8 240.7 70.8C241.5 70.8 242.8 70 244.4 68.2C245.4 67.2 245.7 66.9 245.8 66.9C245.9 66.9 245.9 66.9 246 67C246.1 67 246.1 67.1 246.1 67.2C246.1 67.5 245.6 68.1 244.3 69.3C242.8 70.8 241.8 71.4 240.8 71.5H240.6C239.5 71.5 238.7 70.5 238.7 69.1C238.7 68.9 238.7 68.7 238.8 68.4C238.8 68.3 238.8 68.3 238.8 68.3C238.8 68.3 238.7 68.4 238.5 68.7C236.9 71 235.9 72 235 72C234.9 72 234.8 72 234.7 72C233.9 71.8 233.5 71 233.5 69.8C233.5 68.7 233.9 67.2 234.6 65.8C235.2 64.6 235.9 63.8 236.4 63.8C236.6 63.8 236.7 63.9 236.8 64.1C236.9 64.2 236.9 64.3 236.9 64.4C236.9 64.6 236.7 65 236.2 66C235.3 67.6 234.7 69.5 234.7 70.4C234.7 70.6 234.8 70.8 234.8 70.9C234.9 71 234.9 71 235 71C235.3 71 235.9 70.6 236.5 70C237.2 69.1 239.1 66.4 239.6 65.3C240.2 64.3 240.6 63.7 241 63.7C241.3 63.7 241.3 63.7 241.4 63.8Z" fill="#27A9CB"/>
<path d="M258.6 57.2C258.8 57.3 258.9 57.6 258.9 57.9C258.9 58.2 258.8 58.5 258.6 58.6C258.5 58.7 258.4 58.8 257.8 60C256.2 63.1 255 66 253.9 69.3C253.8 69.7 253.7 70 253.6 70.1C253.6 70.2 254 70.3 254.6 70.3C256.2 70.3 257.7 69.5 259.9 67.4C260.1 67.2 260.3 67.1 260.4 67.1C260.5 67.1 260.6 67.2 260.6 67.3C260.6 67.5 260.4 67.8 260.2 68.1C258.4 69.9 256.4 71 254.7 71C254.6 71 254.5 71 254.5 71.1C254.5 71.2 254.5 71.2 254.6 71.4C254.7 71.7 254.7 72 254.7 72.3C254.7 74.3 253.3 77.1 252.2 77.1C252.1 77.1 252 77.1 251.9 77C251.5 76.8 251.4 76.2 251.4 75.4C251.4 72.3 253.6 65.5 256.8 59.4C257.7 57.8 258.1 57.2 258.5 57.2C258.3 57.2 258.4 57.2 258.6 57.2ZM253.2 71.2C252.5 73.4 252.1 75.1 252.1 75.8C252.1 76 252.2 76.1 252.2 76.1C252.3 76.1 252.3 76.1 252.4 76C253.2 75.1 253.8 73.5 253.8 72.3C253.8 72 253.8 71.8 253.7 71.6C253.6 71.2 253.5 70.9 253.4 70.9C253.3 70.9 253.2 71 253.2 71.2Z" fill="#27A9CB"/>
<path d="M266.4 63.8C266.6 63.9 266.7 64 266.7 64.1C266.7 64.3 266.6 64.6 266.3 65.2C265.3 67.2 264.8 68.7 264.8 69.6C264.8 70.4 265.1 70.8 265.7 70.8C266.5 70.8 267.8 70 269.4 68.2C270.4 67.2 270.7 66.9 270.8 66.9C270.9 66.9 270.9 66.9 271 67C271.1 67 271.1 67.1 271.1 67.2C271.1 67.5 270.6 68.1 269.3 69.3C267.8 70.8 266.8 71.4 265.8 71.5H265.6C264.5 71.5 263.7 70.5 263.7 69.1C263.7 68.9 263.7 68.7 263.8 68.4C263.8 68.3 263.8 68.3 263.8 68.3C263.8 68.3 263.7 68.4 263.5 68.7C261.9 71 260.9 72 260 72C259.9 72 259.8 72 259.7 72C258.9 71.8 258.5 71 258.5 69.8C258.5 68.7 258.9 67.2 259.6 65.8C260.2 64.6 260.9 63.8 261.4 63.8C261.6 63.8 261.7 63.9 261.8 64.1C261.9 64.2 261.9 64.3 261.9 64.4C261.9 64.6 261.7 65 261.2 66C260.3 67.6 259.7 69.5 259.7 70.4C259.7 70.6 259.8 70.8 259.8 70.9C259.9 71 259.9 71 260 71C260.3 71 260.9 70.6 261.5 70C262.2 69.1 264.1 66.4 264.6 65.3C265.2 64.3 265.6 63.7 266 63.7C266.3 63.7 266.3 63.7 266.4 63.8Z" fill="#27A9CB"/>
<path d="M277.1 51.2C277.3 51.3 277.4 51.4 277.4 51.6C277.4 51.8 277.4 51.9 277.3 52.2C277.1 52.7 277 52.9 276.8 52.9H276.7C276.6 52.9 274.6 56.6 274.6 56.8C274.6 56.8 275 56.8 275.5 56.9C279 57 282.1 57.4 282.5 57.8C282.6 57.9 282.7 58 282.7 58.1C282.7 58.3 282.5 58.4 282.1 58.4C282 58.4 281.8 58.4 281.7 58.4C279 58 276.7 57.9 275.4 57.9C274.6 57.9 274.2 57.9 274.2 57.9C271.8 63.2 270 68.7 270 71.1C270 71.3 270 71.4 270 71.6C270.1 72.5 270.4 72.9 270.9 72.9C271.8 72.9 273.4 71 275.3 67.5C275.6 67 275.8 66.7 275.9 66.7C275.9 66.7 276 66.7 276 66.8C276.1 66.9 276.1 66.9 276.1 67C276.1 67.3 275.8 68 275.1 69.2C273.2 72.3 272 73.6 270.9 73.6C270.8 73.6 270.7 73.6 270.6 73.6C269.6 73.4 269.1 72.3 269.1 70.5C269.1 67.8 270.2 63.6 272.4 58.8C272.6 58.5 272.7 58.1 272.7 58.1C272.7 58.1 272.6 58 272.4 58C272.1 58 271.7 58 271.1 58.1C267.8 58.3 265.1 58.5 264.8 58.8C264.7 58.9 264.6 58.9 264.5 58.9C264.2 58.9 264 58.7 264 58.5C264 58.4 264 58.3 264.1 58.2C264.5 57.8 268.7 57.3 272.5 57.1C273.2 57.1 273.2 57.1 273.6 56.3C275.5 52.6 276.4 51.3 277 51.3C276.9 51.1 277 51.2 277.1 51.2Z" fill="#27A9CB"/>
<path d="M282 63.8C282.2 63.9 282.3 64 282.3 64.1C282.3 64.3 282.2 64.6 281.9 65.2C280.9 67.2 280.4 68.7 280.4 69.6C280.4 70.4 280.7 70.8 281.3 70.8C282.1 70.8 283.4 70 285 68.2C286 67.2 286.3 66.9 286.4 66.9C286.5 66.9 286.5 66.9 286.6 67C286.7 67 286.7 67.1 286.7 67.2C286.7 67.5 286.2 68.1 284.9 69.3C283.4 70.8 282.4 71.4 281.4 71.5H281.2C280.1 71.5 279.3 70.5 279.3 69.1C279.3 68.9 279.3 68.7 279.4 68.4C279.4 68.3 279.4 68.3 279.4 68.3C279.4 68.3 279.3 68.4 279.1 68.7C277.5 71 276.5 72 275.6 72C275.5 72 275.4 72 275.3 72C274.5 71.8 274.1 71 274.1 69.8C274.1 68.7 274.5 67.2 275.2 65.8C275.8 64.6 276.5 63.8 277 63.8C277.2 63.8 277.3 63.9 277.4 64.1C277.5 64.2 277.5 64.3 277.5 64.4C277.5 64.6 277.3 65 276.8 66C275.9 67.6 275.3 69.5 275.3 70.4C275.3 70.6 275.4 70.8 275.4 70.9C275.5 71 275.5 71 275.6 71C275.9 71 276.5 70.6 277.1 70C277.8 69.1 279.7 66.4 280.2 65.3C280.8 64.3 281.2 63.7 281.6 63.7C281.9 63.7 281.9 63.7 282 63.8Z" fill="#27A9CB"/>
<path d="M288.3 63.6C288.4 63.7 288.4 63.8 288.4 63.9C288.4 64 288.3 64.2 288.2 64.5C287.6 65.7 286.4 68.2 286.4 68.4C286.4 68.4 286.5 68.3 286.6 68.2C288.6 65.6 291.4 63.6 292.8 63.6C293.5 63.6 293.9 64.1 293.9 64.6C293.9 64.9 293.8 65.2 293.5 65.4C293.3 65.5 293.2 65.6 293 65.6C292.7 65.6 292.4 65.4 292.4 65C292.4 64.9 292.4 64.8 292.5 64.7C292.5 64.6 292.5 64.6 292.4 64.6C292.2 64.6 292 64.7 291.6 64.8C289.1 65.8 285.3 69.8 285.3 71.3C285.3 71.4 285.3 71.5 285.3 71.5C285.3 71.6 285.4 71.7 285.4 71.7C285.4 72 285.1 72.4 284.7 72.4C284.6 72.4 284.5 72.4 284.4 72.3C284.1 72.1 284 71.8 284 71.2C284 69.6 285 66.7 286.6 64.4C287 63.7 287.5 63.4 287.8 63.4C288.1 63.3 288.2 63.4 288.3 63.6Z" fill="#27A9CB"/>
<path d="M296.8 63.6C297 63.6 297.2 63.8 297.3 64C297.4 64.1 297.4 64.2 297.4 64.2H297.5C297.6 64.2 297.7 64.1 297.8 64.2C298.2 64.2 298.6 64.5 298.8 65C299 65.5 299.1 66 299 66.6C298.8 69.3 296.2 72.6 294.1 72.4C294 72.4 293.8 72.3 293.7 72.3C292.8 72 292.4 71 292.5 69.7C292.6 68.3 293.3 66.6 294.5 65C295.3 64.1 296.1 63.6 296.8 63.6ZM294.2 70.1C294.1 70.8 294.4 71.1 294.8 71.2H295C296.5 70.8 298 68.1 298.2 66.4C298.3 65.7 298 65.1 297.5 65C297.4 64.9 297.2 64.9 297.1 64.9H297C296.4 64.8 294.3 68.5 294.2 70.1Z" fill="#27A9CB"/>
</g>
<defs>
<clipPath id="clip0_7_468">
<rect width="299" height="80.3" fill="white"/>
</clipPath>
</defs>
</svg>
